<svg xmlns="http://www.w3.org/2000/svg" width="169.077" height="157" viewBox="0 0 169.077 157">
  <g id="Groupe_54" data-name="Groupe 54" transform="translate(-4 -6)">
    <path id="Tracé_3429" data-name="Tracé 3429" d="M76.462,51.288h3.019V84.5H76.462ZM58.346,69.4H55.327V84.5h3.019Zm63.4-30.192h-3.019V84.5h3.019ZM97.6,84.5h3.019V60.346H97.6Zm75.481,21.135v12.077a6.045,6.045,0,0,1-6.038,6.038H101.787l7.044,21.135h15.939a6.045,6.045,0,0,1,6.038,6.038v6.038A6.045,6.045,0,0,1,124.769,163H52.308a6.045,6.045,0,0,1-6.038-6.038v-6.038a6.045,6.045,0,0,1,6.038-6.038H68.246L75.29,123.75H10.038A6.045,6.045,0,0,1,4,117.712V105.635Zm-81.519,9.058a3.019,3.019,0,1,0-3.019,3.019A3.018,3.018,0,0,0,91.558,114.692ZM4,99.6V12.038A6.045,6.045,0,0,1,10.038,6h157a6.045,6.045,0,0,1,6.038,6.038V99.6ZM85.519,48.269A3.02,3.02,0,0,0,82.5,45.25H73.442a3.02,3.02,0,0,0-3.019,3.019v39.25a3.018,3.018,0,0,0,3.019,3.019H82.5a3.018,3.018,0,0,0,3.019-3.019Zm21.135,9.058a3.02,3.02,0,0,0-3.019-3.019H94.577a3.02,3.02,0,0,0-3.019,3.019V87.519a3.018,3.018,0,0,0,3.019,3.019h9.058a3.018,3.018,0,0,0,3.019-3.019Zm18.115-24.154h-9.058a3.02,3.02,0,0,0-3.019,3.019V87.519a3.018,3.018,0,0,0,3.019,3.019h9.058a3.018,3.018,0,0,0,3.019-3.019V36.192A3.02,3.02,0,0,0,124.769,33.173ZM55.834,46.926a3.021,3.021,0,0,0,4.188.836L77.177,36.325,97.17,39.181a3.009,3.009,0,0,0,2.391-.694L120.7,20.372a3.019,3.019,0,0,0-3.931-4.583l-20.1,17.225L76.89,30.187a3,3,0,0,0-2.1.477L56.673,42.741A3.017,3.017,0,0,0,55.834,46.926ZM49.288,87.519a3.018,3.018,0,0,0,3.019,3.019h9.058a3.018,3.018,0,0,0,3.019-3.019V66.385a3.02,3.02,0,0,0-3.019-3.019H52.308a3.02,3.02,0,0,0-3.019,3.019Z" fill="#f7f7f7"/>
  </g>
</svg>
