<svg xmlns="http://www.w3.org/2000/svg" width="165" height="157.41" viewBox="0 0 165 157.41">
  <g id="Groupe_52" data-name="Groupe 52" transform="translate(-5 -6.15)">
    <g id="Groupe_51" data-name="Groupe 51" transform="translate(5 6.15)">
      <g id="Groupe_49" data-name="Groupe 49">
        <path id="Tracé_3425" data-name="Tracé 3425" d="M5,47.532A11.8,11.8,0,0,0,16.814,59.313h141.4A11.788,11.788,0,0,0,170,47.532V34.86H5Z" transform="translate(-5 59.883)" fill="#f7f7f7"/>
        <path id="Tracé_3426" data-name="Tracé 3426" d="M158.219,6.15H16.814A11.8,11.8,0,0,0,5,17.931V94.293H170V17.931A11.788,11.788,0,0,0,158.219,6.15ZM80.174,85.977a9.9,9.9,0,1,1,9.9-9.9A9.887,9.887,0,0,1,80.174,85.977Zm30.327,0a9.9,9.9,0,1,1,9.9-9.9A9.887,9.887,0,0,1,110.5,85.977Zm9.075-24.486H73.607a3.289,3.289,0,0,1-3.2-2.442l-6.831-26.1v-.033l-3.1-11.847H55.457a3.3,3.3,0,0,1,0-6.6h7.557a3.318,3.318,0,0,1,3.2,2.475l3.1,11.847h49.4a3.285,3.285,0,0,1,2.937,4.785L111.128,54.891h8.448a3.3,3.3,0,1,1,0,6.6Z" transform="translate(-5 -6.15)" fill="#f7f7f7"/>
      </g>
      <g id="Groupe_50" data-name="Groupe 50" transform="translate(54.846 125.796)">
        <path id="Tracé_3427" data-name="Tracé 3427" d="M60.395,63.179c.4,2.079,3.4,4.323,8.514,6.336a3.3,3.3,0,0,1-1.188,6.369H30.86a3.3,3.3,0,0,1-1.221-6.369c5.115-2.013,8.151-4.257,8.514-6.336.627-3.663-5.94-9.4-10.758-13.629-2.112-1.848-4.125-3.564-5.775-5.28H76.928c-1.65,1.716-3.663,3.432-5.742,5.28C66.368,53.774,59.768,59.516,60.395,63.179Z" transform="translate(-21.62 -44.27)" fill="#f7f7f7"/>
      </g>
    </g>
  </g>
</svg>
