<svg xmlns="http://www.w3.org/2000/svg" width="111.591" height="188.782" viewBox="0 0 111.591 188.782">
  <path id="Tracé_3420" data-name="Tracé 3420" d="M29.865,0A16.83,16.83,0,0,0,13.084,16.781V172a16.83,16.83,0,0,0,16.781,16.781h78.029A16.83,16.83,0,0,0,124.675,172V16.781A16.83,16.83,0,0,0,107.894,0ZM59.527,16.161h18.71c1.23,0,2.227,1.41,2.227,3.147s-1,3.147-2.227,3.147H59.527c-1.23,0-2.227-1.41-2.227-3.147S58.3,16.161,59.527,16.161ZM22.3,38.6H115.46V150.188H22.3ZM68.881,159.1h0A10.389,10.389,0,0,1,79.27,169.485h0a10.389,10.389,0,0,1-10.389,10.389h0a10.389,10.389,0,0,1-10.389-10.389h0A10.389,10.389,0,0,1,68.881,159.1Z" transform="translate(-13.084)" fill="#f7f7f7"/>
</svg>
