<svg xmlns="http://www.w3.org/2000/svg" viewBox="0 0 135.44 45.81"><defs><style>.cls-1{fill:none;}.cls-2{fill:#f7f7f7;}</style></defs><g id="Calque_2" data-name="Calque 2"><g id="Calque_1-2" data-name="Calque 1"><path class="cls-1" d="M96.66,19.59A1.63,1.63,0,0,0,98.3,17.8a1.65,1.65,0,1,0-3.3,0A1.64,1.64,0,0,0,96.66,19.59Z"/><path class="cls-1" d="M14.21,24.59a44.32,44.32,0,0,0-8,3.2,46.32,46.32,0,0,0,8.45.45c-.08-.38-.15-.68-.23-1C14.29,26.34,14.29,25.5,14.21,24.59Z"/><path class="cls-1" d="M109,28a2.46,2.46,0,1,0,2.34,2.46A2.31,2.31,0,0,0,109,28Z"/><path class="cls-1" d="M120.36,28A2.3,2.3,0,0,0,118,30.45a2.34,2.34,0,1,0,4.68,0A2.29,2.29,0,0,0,120.36,28Z"/><path class="cls-1" d="M119.11,15.9a1.53,1.53,0,0,0-1.6,1.34h3.18A1.53,1.53,0,0,0,119.11,15.9Z"/><path class="cls-1" d="M60.56,12.11a3.76,3.76,0,1,0-1.44,7.38,3.68,3.68,0,0,0,4.41-3A3.8,3.8,0,0,0,60.56,12.11Z"/><path class="cls-1" d="M126.68,15.9a1.52,1.52,0,0,0-1.59,1.34h3.17A1.53,1.53,0,0,0,126.68,15.9Z"/><path class="cls-1" d="M88.42,14.22H86.84v2.93h1.58c1.19,0,1.79-.56,1.79-1.47S89.61,14.22,88.42,14.22Z"/><path class="cls-1" d="M31.26,10A14.25,14.25,0,0,0,19.61,21.47a2,2,0,0,0,1.6,2.28,1,1,0,0,0,.69,0,1.94,1.94,0,0,0,1.6-1.6A10.34,10.34,0,0,1,32,13.86a1.87,1.87,0,0,0,1.59-2.28A2,2,0,0,0,31.26,10Z"/><path class="cls-2" d="M39.1,30.3a5.37,5.37,0,0,1-.46-3.43l.84-4.26a11.45,11.45,0,0,1,6.77-8.22c.38-1.37.92-2.66,1.37-3.88a19.46,19.46,0,0,0-32.8,8.68C1,23.14-.33,26.42.05,28.78c1.22,7.07,24.74,3.95,34.86,2.28C36.13,30.83,37.58,30.6,39.1,30.3ZM6.22,27.79a44.32,44.32,0,0,1,8-3.2c.08.91.08,1.75.23,2.66.08.31.15.61.23,1A46.32,46.32,0,0,1,6.22,27.79ZM32,13.86a10.34,10.34,0,0,0-8.45,8.29,1.94,1.94,0,0,1-1.6,1.6,1,1,0,0,1-.69,0,2,2,0,0,1-1.6-2.28A14.25,14.25,0,0,1,31.26,10a2,2,0,0,1,2.28,1.6A1.87,1.87,0,0,1,32,13.86Z"/><path class="cls-2" d="M45.11,33.19c-2.89.61-6,1.22-9.51,1.83-6.47,1.06-11.8,1.67-16.29,2a19.45,19.45,0,0,0,27.55,1.37,10.87,10.87,0,0,1,0-3.12l.08-.45A7.54,7.54,0,0,1,46,33.11Z"/><path class="cls-2" d="M55.77,39.05a.64.64,0,0,1-.92-.15,15.5,15.5,0,0,1-1.44-2.66l-2.67-.54c-.45,4.26,1.91,8.38,2.82,9.82a.62.62,0,0,0,.91.15c1.37-1,5.1-3.88,6.32-8.06l-2.66-.54A17.86,17.86,0,0,1,55.77,39.05Z"/><path class="cls-2" d="M68.78,21.32l-.15-.08c1.9-11.42-3.12-18.49-5-20.78a1.38,1.38,0,0,0-1.68-.3C59.35,1.53,52,6.25,49.53,17.51h-.16a7.3,7.3,0,0,0-5.93,5.79l-.84,4.26a1.4,1.4,0,0,0,1.6,1.67l5.4-.91.08,3.2a1.69,1.69,0,0,0,1.37,1.59l10.35,2a1.63,1.63,0,0,0,1.83-.91l1.29-3,4.72,2.89a1.43,1.43,0,0,0,2.13-.91l.84-4.26A7.46,7.46,0,0,0,68.78,21.32Zm-5.25-4.8a3.76,3.76,0,0,1-7.38-1.44,3.68,3.68,0,0,1,4.41-3A3.8,3.8,0,0,1,63.53,16.52Z"/><path class="cls-2" d="M92.18,15.68c0-1.88-1.41-3-3.65-3H84.9V21h1.94V18.69h1.79L90.25,21h2.08l-1.88-2.7A2.73,2.73,0,0,0,92.18,15.68Zm-3.76,1.47H86.84V14.22h1.58c1.19,0,1.79.54,1.79,1.46S89.61,17.15,88.42,17.15Z"/><path class="cls-2" d="M96.66,21.13a3.33,3.33,0,1,0-3.55-3.33A3.31,3.31,0,0,0,96.66,21.13Zm0-5.11A1.63,1.63,0,0,1,98.3,17.8a1.66,1.66,0,1,1-3.3,0A1.64,1.64,0,0,1,96.66,16Z"/><path class="cls-2" d="M107.45,19.5,106,18.7a1.57,1.57,0,0,1-1.45.89,1.65,1.65,0,0,1-1.69-1.79A1.65,1.65,0,0,1,104.55,16a1.58,1.58,0,0,1,1.45.89l1.45-.78a3,3,0,0,0-2.89-1.65,3.33,3.33,0,1,0,0,6.65A3,3,0,0,0,107.45,19.5Z"/><polygon class="cls-2" points="112.64 17.31 115.33 14.58 113.09 14.58 110.36 17.17 110.36 12.13 108.49 12.13 108.49 21.03 110.36 21.03 110.36 19.39 111.26 18.5 113.3 21.03 115.57 21.03 112.64 17.31"/><path class="cls-2" d="M122,20.08,121,19a2.18,2.18,0,0,1-1.62.63,1.71,1.71,0,0,1-1.84-1.3h4.88c0-.15,0-.36,0-.5a3.19,3.19,0,0,0-3.35-3.35,3.29,3.29,0,0,0-3.45,3.32c0,1.92,1.45,3.33,3.69,3.33A3.36,3.36,0,0,0,122,20.08Zm-2.89-4.18a1.53,1.53,0,0,1,1.58,1.34h-3.18A1.53,1.53,0,0,1,119.11,15.9Z"/><path class="cls-2" d="M126.67,14.48a3.28,3.28,0,0,0-3.44,3.32,3.76,3.76,0,0,0,6.34,2.28l-1-1.08a2.17,2.17,0,0,1-1.61.63,1.72,1.72,0,0,1-1.85-1.3H130c0-.15,0-.36,0-.5A3.2,3.2,0,0,0,126.67,14.48Zm-1.58,2.76a1.61,1.61,0,0,1,3.17,0Z"/><path class="cls-2" d="M134.94,19.4a1.25,1.25,0,0,1-.76.24.75.75,0,0,1-.8-.85V16.16H135V14.72h-1.6V13.15h-1.87v1.57h-1v1.44h1v2.65a2.13,2.13,0,0,0,2.41,2.32,2.71,2.71,0,0,0,1.52-.41Z"/><path class="cls-2" d="M86.54,27.41c0-.84.69-1.52,2.22-1.52a4.31,4.31,0,0,1,2.3.7l.3-.71a4.7,4.7,0,0,0-2.6-.74c-2.13,0-3.09,1.06-3.09,2.3,0,3.1,5.17,1.69,5.17,4,0,.83-.69,1.49-2.26,1.49a4.12,4.12,0,0,1-2.77-1l-.35.68a4.56,4.56,0,0,0,3.12,1.09c2.15,0,3.13-1.05,3.13-2.29C91.71,28.33,86.54,29.72,86.54,27.41Z"/><path class="cls-2" d="M95.55,32.93a1,1,0,0,1-1.09-1.15V28h1.92v-.72H94.46V25.91h-.85v1.38H92.48V28h1.13v3.82a1.67,1.67,0,0,0,1.85,1.83,2,2,0,0,0,1.33-.44l-.3-.61A1.45,1.45,0,0,1,95.55,32.93Z"/><path class="cls-2" d="M103.17,30.6A2.05,2.05,0,0,1,101,32.89a1.76,1.76,0,0,1-1.89-2V27.29h-.85V31a2.44,2.44,0,0,0,2.66,2.71,2.51,2.51,0,0,0,2.27-1.21V33.6H104V27.29h-.85Z"/><path class="cls-2" d="M111.32,28.49a2.76,2.76,0,0,0-2.4-1.24,3,3,0,0,0-3.14,3.2,3.06,3.06,0,0,0,3.14,3.21,2.73,2.73,0,0,0,2.44-1.31V33.6h.81V24.7h-.85ZM109,32.91a2.46,2.46,0,1,1,2.34-2.46A2.32,2.32,0,0,1,109,32.91Z"/><rect class="cls-2" x="114.55" y="27.29" width="0.85" height="6.31"/><path class="cls-2" d="M115,24.7a.61.61,0,1,0,.63.59A.61.61,0,0,0,115,24.7Z"/><path class="cls-2" d="M120.36,27.25a3.21,3.21,0,1,0,3.2,3.2A3.1,3.1,0,0,0,120.36,27.25Zm0,5.66A2.31,2.31,0,0,1,118,30.45a2.34,2.34,0,1,1,4.68,0A2.3,2.3,0,0,1,120.36,32.91Z"/></g></g></svg>