<svg xmlns="http://www.w3.org/2000/svg" width="167.8" height="167.8" viewBox="0 0 167.8 167.8">
  <g id="Groupe_48" data-name="Groupe 48" transform="translate(-2 -1.982)">
    <path id="Tracé_236" data-name="Tracé 236" d="M25.673,32.67l-7.828,5.591a2.8,2.8,0,0,0-.6,3.908,2.847,2.847,0,0,0,.3.341L47.759,72.733a2.793,2.793,0,0,0,1.985.811h.224a2.8,2.8,0,0,0,2.041-1.174L57.6,64.541Z" transform="translate(26.399 55.107)" fill="#f7f7f7"/>
    <path id="Tracé_237" data-name="Tracé 237" d="M139.181,4.828a2.8,2.8,0,0,0-2.8-2.8A124.6,124.6,0,0,0,50.808,32.786c-2.125,1.845-4.222,3.8-6.207,5.815A124.112,124.112,0,0,0,19.272,74.945a2.8,2.8,0,0,0,.559,3.131L63,121.354a2.8,2.8,0,0,0,3.131.587c2.376-1.062,4.809-2.265,7.157-3.551A124.065,124.065,0,0,0,102.613,96.64c1.426-1.426,2.8-2.8,4.138-4.361A124.062,124.062,0,0,0,139.181,4.828ZM105.912,61.022a18.17,18.17,0,1,1,5.312-12.86A18.17,18.17,0,0,1,105.912,61.022Z" transform="translate(30.563 0)" fill="#f7f7f7"/>
    <path id="Tracé_238" data-name="Tracé 238" d="M74.131,38.04A129.649,129.649,0,0,1,43.378,60.769c-2.069,1.118-4.194,2.181-6.318,3.187l1.006,24.77a2.8,2.8,0,0,0,4.417,2.293,64.12,64.12,0,0,0,13.979-10.54A65.143,65.143,0,0,0,75.557,36.81Z" transform="translate(62.958 62.542)" fill="#f7f7f7"/>
    <path id="Tracé_239" data-name="Tracé 239" d="M61.011,14.416l1.23-1.146a65.159,65.159,0,0,0-43.7,19.095,64.2,64.2,0,0,0-10.512,13.7,2.8,2.8,0,0,0,2.32,4.166l24.77,1.006A129.625,129.625,0,0,1,61.011,14.416Z" transform="translate(10.184 20.27)" fill="#f7f7f7"/>
    <path id="Tracé_240" data-name="Tracé 240" d="M63.2,58.746a2.795,2.795,0,0,0-5.06-.615,8.778,8.778,0,0,1-1.286,1.705c-1.566,1.566-5.4,1.985-8.751,2.376a48.116,48.116,0,0,0-4.809.7,35.094,35.094,0,0,0-5.144,1.538c.587-5.591,2.237-13.28,6.123-17.166A8.778,8.778,0,0,1,45.977,46a2.8,2.8,0,0,0-.615-5.06,27.175,27.175,0,0,0-27.426,6.682C2.168,63.387,2,97.858,2,99.312a2.8,2.8,0,0,0,2.79,2.8,2.829,2.829,0,0,0,1.236-.285,135.389,135.389,0,0,1,22.086-7.716,72.111,72.111,0,0,1,8.807-1.454c7.381-.923,14.985-1.9,19.57-6.486A27.175,27.175,0,0,0,63.2,58.746Z" transform="translate(0 67.668)" fill="#f7f7f7"/>
  </g>
</svg>
