<svg xmlns="http://www.w3.org/2000/svg" width="167.8" height="142.392" viewBox="0 0 167.8 142.392">
  <path id="Tracé_3421" data-name="Tracé 3421" d="M11.877,149.914l14.829-.683a7.878,7.878,0,0,0,6.628-4.134,5.761,5.761,0,0,0,3.758,1.418h.256l62.731,4.168h2.409a40.4,40.4,0,0,0,23.08-7.243l39.8-28.017a7.756,7.756,0,0,0,1.162-11.719l-.171-.171a7.875,7.875,0,0,0-9.823-1.213c-12.488,7.636-37.072,22.4-37.072,22.4a20.5,20.5,0,0,1-10.165,2.973l-27.932.137h0a1.862,1.862,0,0,1-.154-3.707L109.8,123.6a6.7,6.7,0,0,0,.222-13.308l-16.93-1.247-12.659-2.238a37.345,37.345,0,0,1-8.115-2.153c-21.252-8.542-34.167-3.861-41-1.708a7.977,7.977,0,0,0-7.107-3.673l-14.777.666a8.7,8.7,0,0,0-8.545,8.843l0,.143,1.708,32.8A8.8,8.8,0,0,0,11.877,149.914Zm5.757-17.408a4.852,4.852,0,1,1-5.125,4.732A4.937,4.937,0,0,1,17.634,132.505ZM119.4,111.031l23.165-11.959a7.363,7.363,0,0,1,8.542,1.025c-10.25,6.3-22.209,13.53-30.084,18.382a11.311,11.311,0,0,0-1.555-7.363Zm12.9-14.863a7.455,7.455,0,0,1,4.1,1.281l-20.33,10.114a11.271,11.271,0,0,0-5.757-1.965l-2.887-.205,21.85-8.542A7.451,7.451,0,0,1,132.3,96.168Zm-77.475-34.3,6.833,1.2A35.359,35.359,0,0,0,65.178,71.6L61.2,77.274a5.245,5.245,0,0,0,.581,6.714l4.066,4.1a5.244,5.244,0,0,0,6.714.581l5.672-4a35.222,35.222,0,0,0,8.542,3.519l1.2,6.833a5.245,5.245,0,0,0,5.125,4.339h5.774a5.245,5.245,0,0,0,5.125-4.339l1.2-6.833a35.222,35.222,0,0,0,8.542-3.519l5.672,3.98a5.245,5.245,0,0,0,6.663-.564L130.147,84a5.245,5.245,0,0,0,.581-6.714l-3.981-5.672a35.29,35.29,0,0,0,3.519-8.542l6.833-1.2a5.245,5.245,0,0,0,4.339-5.125V50.914a5.245,5.245,0,0,0-4.339-5.125l-6.833-1.2a35.29,35.29,0,0,0-3.519-8.542l3.981-5.672a5.245,5.245,0,0,0-.581-6.714l-4.083-4.083A5.245,5.245,0,0,0,119.35,19l-5.672,3.98a35.222,35.222,0,0,0-8.542-3.519l-1.2-6.833A5.245,5.245,0,0,0,98.816,8.29h-5.74a5.245,5.245,0,0,0-5.125,4.339l-1.2,6.833a35.29,35.29,0,0,0-8.542,3.519L72.541,19a5.245,5.245,0,0,0-6.714.581l-4.083,4.083a5.244,5.244,0,0,0-.581,6.714l3.98,5.672a35.359,35.359,0,0,0-3.519,8.542l-6.833,1.2a5.245,5.245,0,0,0-4.339,5.125v5.774A5.244,5.244,0,0,0,54.825,61.864ZM95.963,38.1A15.717,15.717,0,1,1,80.246,53.818h0A15.717,15.717,0,0,1,95.963,38.1Z" transform="translate(-0.887 -8.29)" fill="#f7f7f7"/>
</svg>
