<svg xmlns="http://www.w3.org/2000/svg" width="177.942" height="157.41" viewBox="0 0 177.942 157.41">
  <g id="Groupe_53" data-name="Groupe 53" transform="translate(-6 -9)">
    <path id="Tracé_3428" data-name="Tracé 3428" d="M122.343,53.485l-.007,37.642H33.376V53.485ZM33.376,46.641V32.954h88.971l0,13.688Zm23.954-5.133A1.716,1.716,0,0,0,59.04,43.22h3.422a1.716,1.716,0,0,0,1.711-1.711V38.087a1.716,1.716,0,0,0-1.711-1.711H59.04a1.716,1.716,0,0,0-1.711,1.711Zm-10.266,0a1.716,1.716,0,0,0,1.711,1.711H52.2a1.716,1.716,0,0,0,1.711-1.711V38.087A1.716,1.716,0,0,0,52.2,36.376H48.774a1.716,1.716,0,0,0-1.711,1.711Zm-10.266,0a1.716,1.716,0,0,0,1.711,1.711h3.422a1.716,1.716,0,0,0,1.711-1.711V38.087a1.716,1.716,0,0,0-1.711-1.711H38.509A1.716,1.716,0,0,0,36.8,38.087ZM183.942,118.5v10.266a10.278,10.278,0,0,1-10.266,10.266H109.042l2.631,20.532h7.251a3.422,3.422,0,1,1,0,6.844H71.017a3.422,3.422,0,1,1,0-6.844h7.251L80.9,139.034H16.266A10.278,10.278,0,0,1,6,128.768V118.5Zm-85.549,5.133a1.716,1.716,0,0,0-1.711-1.711H93.26a1.716,1.716,0,0,0-1.711,1.711v3.422a1.716,1.716,0,0,0,1.711,1.711h3.422a1.716,1.716,0,0,0,1.711-1.711ZM6,111.659V19.266A10.278,10.278,0,0,1,16.266,9h157.41a10.278,10.278,0,0,1,10.266,10.266v92.393ZM26.532,91.127a6.851,6.851,0,0,0,6.844,6.844h88.971a6.851,6.851,0,0,0,6.844-6.844V32.954a6.851,6.851,0,0,0-6.844-6.844H33.376a6.851,6.851,0,0,0-6.844,6.844Z" fill="#f7f7f7"/>
  </g>
</svg>
