<svg xmlns="http://www.w3.org/2000/svg" width="440.906" height="394.5" viewBox="0 0 440.906 394.5">
  <g id="Groupe_55" data-name="Groupe 55" transform="translate(-300.174 -62.453)">
    <g id="Groupe_23" data-name="Groupe 23" transform="translate(609.377 88.394)">
      <g id="Groupe_3" data-name="Groupe 3" transform="translate(27.174 140.402)">
        <path id="Tracé_31" data-name="Tracé 31" d="M594.275,248.427c-9.925-5.73-17.969-19.606-17.969-30.993,0-4.225,1.119-7.492,3.02-9.659-5.446.395-9.13,4.955-9.13,12.648,0,11.388,8.044,25.264,17.969,30.993,6.234,3.6,11.709,3.105,14.926-.572A15.6,15.6,0,0,1,594.275,248.427Z" transform="translate(-557.178 -186.078)" fill="#72b5e8"/>
        <path id="Tracé_32" data-name="Tracé 32" d="M614.7,248.69a35.638,35.638,0,0,0-.307-4.357l7.263-.919a65.705,65.705,0,0,0-3.292-11l-8.276-2.5a58.108,58.108,0,0,0-5.151-8.884l1.984-8.352a66.456,66.456,0,0,0-7.927-8.352l-4.455,5.762a36.13,36.13,0,0,0-3.641-2.455,27.9,27.9,0,0,0-3.641-1.749L582.8,194.978a22.057,22.057,0,0,0-7.927-.8l1.984,10.641a11.372,11.372,0,0,0-5.151,2.937l-8.276-7.053a21.616,21.616,0,0,0-3.292,7.194L567.4,217.2a27.591,27.591,0,0,0-.307,4,35.593,35.593,0,0,0,.307,4.355l-7.263.919a65.709,65.709,0,0,0,3.292,11l8.276,2.5a58.05,58.05,0,0,0,5.151,8.884l-1.984,8.352a66.373,66.373,0,0,0,7.927,8.354l4.455-5.763a36.061,36.061,0,0,0,3.641,2.456,28.231,28.231,0,0,0,3.641,1.749l4.455,10.907a22.054,22.054,0,0,0,7.927.8l-1.984-10.641a11.369,11.369,0,0,0,5.151-2.936l8.276,7.052A21.615,21.615,0,0,0,621.652,262l-7.263-9.3A27.638,27.638,0,0,0,614.7,248.69Zm-23.573,6.747c-9.923-5.728-17.969-19.6-17.969-30.993S581.2,208.47,591.123,214.2s17.968,19.606,17.968,30.993S601.046,261.167,591.123,255.437Z" transform="translate(-560.135 -190.099)" fill="#a8cff0"/>
        <path id="Tracé_33" data-name="Tracé 33" d="M589.065,202.595l-4.455-10.907-6.961,4,4.455,10.907Z" transform="translate(-554.987 -190.807)" fill="#72b5e8"/>
        <path id="Tracé_34" data-name="Tracé 34" d="M581.092,204.115a27.9,27.9,0,0,1,3.641,1.749,36.13,36.13,0,0,1,3.641,2.455l4.455-5.762h0s-.752-.472-1.134-.692a28.066,28.066,0,0,0-3.641-1.749Z" transform="translate(-553.975 -188.329)" fill="#d1ebff"/>
        <path id="Tracé_35" data-name="Tracé 35" d="M586.411,191.888a22.09,22.09,0,0,0-7.927-.8l-6.962,4a22.058,22.058,0,0,1,7.927.8Z" transform="translate(-556.787 -191.007)" fill="#d1ebff"/>
        <path id="Tracé_36" data-name="Tracé 36" d="M605.05,207.267a66.4,66.4,0,0,0-7.927-8.354l-6.96,4a66.46,66.46,0,0,1,7.927,8.352Z" transform="translate(-551.308 -188.683)" fill="#d1ebff"/>
        <path id="Tracé_37" data-name="Tracé 37" d="M596.739,209.367l-1.983,8.352,6.961-4,1.983-8.352Z" transform="translate(-549.958 -186.786)" fill="#72b5e8"/>
        <path id="Tracé_38" data-name="Tracé 38" d="M594.756,215.821a58.116,58.116,0,0,1,5.151,8.884l6.96-4a58.174,58.174,0,0,0-5.151-8.886Z" transform="translate(-549.958 -184.888)" fill="#72b5e8"/>
        <path id="Tracé_39" data-name="Tracé 39" d="M598.737,222.688l8.276,2.5,6.961-4-8.276-2.5Z" transform="translate(-548.788 -182.87)" fill="#d1ebff"/>
        <path id="Tracé_40" data-name="Tracé 40" d="M605.133,224.621a65.7,65.7,0,0,1,3.292,11l6.96-4a65.718,65.718,0,0,0-3.292-10.995Z" transform="translate(-546.908 -182.301)" fill="#72b5e8"/>
        <path id="Tracé_41" data-name="Tracé 41" d="M576.106,204.227l-.577-3.1-5.889-5.019-6.961,4,8.276,7.053A11.372,11.372,0,0,1,576.106,204.227Z" transform="translate(-559.387 -189.506)" fill="#72b5e8"/>
        <path id="Tracé_42" data-name="Tracé 42" d="M608.425,247.479a21.615,21.615,0,0,1-3.292,7.194l6.96-4a21.647,21.647,0,0,0,3.292-7.2Z" transform="translate(-546.908 -175.582)" fill="#72b5e8"/>
        <path id="Tracé_43" data-name="Tracé 43" d="M609.024,237.488a27.435,27.435,0,0,0,.307-4c0-.419-.027-.846-.049-1.271l-7.218.912a35.627,35.627,0,0,1,.307,4.357,27.631,27.631,0,0,1-.307,4Z" transform="translate(-547.81 -178.894)" fill="#72b5e8"/>
        <path id="Tracé_44" data-name="Tracé 44" d="M602.064,240.288l7.263,9.306,6.961-4-7.263-9.305Z" transform="translate(-547.81 -177.696)" fill="#d1ebff"/>
        <path id="Tracé_45" data-name="Tracé 45" d="M599.907,246.681a11.37,11.37,0,0,1-5.151,2.936l1.984,10.641,6.96-4-1.406-7.546Z" transform="translate(-549.958 -174.642)" fill="#72b5e8"/>
        <path id="Tracé_46" data-name="Tracé 46" d="M567.137,215.947l-7,4.11,7.263-.919C567.265,218.064,567.182,217,567.137,215.947Z" transform="translate(-560.135 -183.676)" fill="#d1ebff"/>
        <path id="Tracé_47" data-name="Tracé 47" d="M582.1,244.878l-4.455,5.763,7.012-3.992C583.8,246.1,582.944,245.512,582.1,244.878Z" transform="translate(-554.987 -175.172)" fill="#72b5e8"/>
        <g id="Groupe_2" data-name="Groupe 2" transform="translate(0.351 3.966)" style="mix-blend-mode: color-dodge;isolation: isolate">
          <path id="Tracé_48" data-name="Tracé 48" d="M572.624,202.78l-.019-.107c-.331.127-.65.278-.964.435C571.964,202.991,572.287,202.87,572.624,202.78Z" transform="translate(-557.103 -191.544)" fill="#fff"/>
          <path id="Tracé_49" data-name="Tracé 49" d="M566.436,218.508l-6.03.763c.023.116.056.234.08.351l5.986-.757C566.457,218.746,566.45,218.627,566.436,218.508Z" transform="translate(-560.406 -186.889)" fill="#fff"/>
          <path id="Tracé_50" data-name="Tracé 50" d="M597.683,210.817l-1.984,8.353a58.1,58.1,0,0,1,5.151,8.884l8.276,2.5a66,66,0,0,1,3.212,10.644l.819-.136a65.721,65.721,0,0,0-3.291-11l-8.276-2.5a58.212,58.212,0,0,0-5.151-8.884l1.983-8.352a66.289,66.289,0,0,0-7.926-8.353l-.273.917A66.857,66.857,0,0,1,597.683,210.817Z" transform="translate(-551.641 -191.748)" fill="#fff"/>
          <path id="Tracé_51" data-name="Tracé 51" d="M588.367,250.886c-9.923-5.73-17.969-19.6-17.969-30.993,0-5.03,1.579-8.716,4.19-10.783-3.016,1.942-4.872,5.816-4.872,11.27,0,11.387,8.044,25.263,17.969,30.993,5.01,2.892,9.536,3.148,12.8,1.234-.241.074-.494.122-.744.176C596.639,253.909,592.684,253.378,588.367,250.886Z" transform="translate(-557.669 -189.651)" fill="#fff"/>
          <path id="Tracé_52" data-name="Tracé 52" d="M595.789,249.147a11.291,11.291,0,0,0,3.274-1.834l-.305-.261A11.368,11.368,0,0,1,595.789,249.147Z" transform="translate(-550.005 -178.498)" fill="#fff"/>
          <path id="Tracé_53" data-name="Tracé 53" d="M570.674,206.451c-.3.013,0-.235.305-.481l-7.969-6.792c-.226.312-.43.654-.054.695Z" transform="translate(-559.718 -192.571)" fill="#fff"/>
          <path id="Tracé_54" data-name="Tracé 54" d="M594.62,249.413l1.9,10.185c-.22-.012.213-.017.631-.056l-1.963-10.534C594.79,249.161,594.388,249.3,594.62,249.413Z" transform="translate(-550.369 -177.924)" fill="#fff" style="mix-blend-mode: color-dodge;isolation: isolate"/>
          <path id="Tracé_55" data-name="Tracé 55" d="M602.8,237.172a34.345,34.345,0,0,0-.272-4l-.722.054a35.579,35.579,0,0,1,.307,4.357,27.588,27.588,0,0,1-.307,4l7.263,9.306a22.2,22.2,0,0,1-2.653,6.207l.048.576a21.617,21.617,0,0,0,3.29-7.194l-7.263-9.306A27.4,27.4,0,0,0,602.8,237.172Z" transform="translate(-548.237 -182.579)" fill="#fff"/>
          <path id="Tracé_56" data-name="Tracé 56" d="M579.067,195.275l4.454,10.907a27.993,27.993,0,0,1,3.643,1.748,35.911,35.911,0,0,1,3.64,2.456l.14-.692a33.919,33.919,0,0,0-3.126-2.085,28.067,28.067,0,0,0-3.641-1.749l-4.455-10.907a22.058,22.058,0,0,0-7.927-.8l.085.458A25.942,25.942,0,0,1,579.067,195.275Z" transform="translate(-557.059 -194.072)" fill="#fff"/>
          <path id="Tracé_57" data-name="Tracé 57" d="M581.284,245.25l-3.725,4.819c.157.141.309.291.467.43l3.772-4.88C581.627,245.493,581.454,245.378,581.284,245.25Z" transform="translate(-555.364 -179.028)" fill="#fff"/>
        </g>
      </g>
      <g id="Groupe_5" data-name="Groupe 5" transform="translate(5.888 23.508)">
        <path id="Tracé_58" data-name="Tracé 58" d="M595.038,187.04c-14.928-8.618-27.029-29.491-27.029-46.62,0-6.355,1.683-11.27,4.543-14.529-8.192.593-13.734,7.451-13.734,19.026,0,17.129,12.1,38,27.029,46.62,9.379,5.414,17.613,4.67,22.453-.862C604.383,190.962,599.866,189.828,595.038,187.04Z" transform="translate(-539.235 -93.254)" fill="#72b5e8"/>
        <path id="Tracé_59" data-name="Tracé 59" d="M625.757,187.437a53.126,53.126,0,0,0-.463-6.553L636.22,179.5a98.777,98.777,0,0,0-4.952-16.541L618.819,159.2a87.536,87.536,0,0,0-7.748-13.365l2.982-12.563A99.754,99.754,0,0,0,602.131,120.7l-6.7,8.668a54.339,54.339,0,0,0-5.477-3.693,42.107,42.107,0,0,0-5.477-2.631l-6.7-16.407a33.215,33.215,0,0,0-11.924-1.2l2.984,16.007a17.1,17.1,0,0,0-7.748,4.419l-12.449-10.61a32.512,32.512,0,0,0-4.952,10.821l10.925,14a41.369,41.369,0,0,0-.462,6.02,53.3,53.3,0,0,0,.462,6.551l-10.925,1.382a98.8,98.8,0,0,0,4.952,16.541l12.448,3.765a87.6,87.6,0,0,0,7.75,13.364l-2.984,12.563a99.845,99.845,0,0,0,11.924,12.566l6.7-8.668a54.111,54.111,0,0,0,5.477,3.693,42.125,42.125,0,0,0,5.477,2.632l6.7,16.406a33.185,33.185,0,0,0,11.922,1.2l-2.982-16.008a17.1,17.1,0,0,0,7.748-4.418l12.449,10.61a32.526,32.526,0,0,0,4.952-10.823l-10.926-14A41.216,41.216,0,0,0,625.757,187.437ZM590.3,197.586c-14.927-8.619-27.029-29.49-27.029-46.62s12.1-24.029,27.029-15.411,27.028,29.49,27.028,46.621S605.223,206.2,590.3,197.586Z" transform="translate(-543.684 -99.302)" fill="#a8cff0"/>
        <path id="Tracé_60" data-name="Tracé 60" d="M587.2,118.1l-6.7-16.406-10.47,6.014,6.7,16.406Z" transform="translate(-535.94 -100.368)" fill="#72b5e8"/>
        <path id="Tracé_61" data-name="Tracé 61" d="M575.208,120.385a42.317,42.317,0,0,1,5.477,2.632,54.348,54.348,0,0,1,5.477,3.693l6.7-8.667h0s-1.132-.71-1.7-1.042a42.207,42.207,0,0,0-5.477-2.631Z" transform="translate(-534.418 -96.64)" fill="#d1ebff"/>
        <path id="Tracé_62" data-name="Tracé 62" d="M583.208,101.994a33.193,33.193,0,0,0-11.924-1.2l-10.471,6.014a33.217,33.217,0,0,1,11.924,1.2Z" transform="translate(-538.649 -100.669)" fill="#d1ebff"/>
        <path id="Tracé_63" data-name="Tracé 63" d="M611.246,125.126a99.846,99.846,0,0,0-11.922-12.566l-10.471,6.016a99.667,99.667,0,0,1,11.923,12.564Z" transform="translate(-530.406 -97.173)" fill="#d1ebff"/>
        <path id="Tracé_64" data-name="Tracé 64" d="M598.745,128.285l-2.983,12.563,10.47-6.014,2.983-12.563Z" transform="translate(-528.376 -94.318)" fill="#72b5e8"/>
        <path id="Tracé_65" data-name="Tracé 65" d="M595.762,137.994a87.508,87.508,0,0,1,7.748,13.365l10.471-6.014a87.5,87.5,0,0,0-7.748-13.365Z" transform="translate(-528.376 -91.465)" fill="#72b5e8"/>
        <path id="Tracé_66" data-name="Tracé 66" d="M601.75,148.323l12.449,3.765,10.47-6.014-12.449-3.764Z" transform="translate(-526.615 -88.428)" fill="#d1ebff"/>
        <path id="Tracé_67" data-name="Tracé 67" d="M611.371,151.232a98.79,98.79,0,0,1,4.952,16.541l10.471-6.014a98.815,98.815,0,0,0-4.952-16.541Z" transform="translate(-523.787 -87.573)" fill="#72b5e8"/>
        <path id="Tracé_68" data-name="Tracé 68" d="M567.708,120.555l-.868-4.656-8.858-7.55-10.471,6.014,12.449,10.61A17.1,17.1,0,0,1,567.708,120.555Z" transform="translate(-542.559 -98.411)" fill="#72b5e8"/>
        <path id="Tracé_69" data-name="Tracé 69" d="M616.323,185.616a32.529,32.529,0,0,1-4.952,10.823l10.471-6.014a32.527,32.527,0,0,0,4.952-10.823Z" transform="translate(-523.787 -77.466)" fill="#72b5e8"/>
        <path id="Tracé_70" data-name="Tracé 70" d="M617.224,170.586a41.35,41.35,0,0,0,.462-6.018c0-.63-.041-1.272-.075-1.912l-10.856,1.374a53.327,53.327,0,0,1,.462,6.553,41.366,41.366,0,0,1-.462,6.018Z" transform="translate(-525.144 -82.447)" fill="#72b5e8"/>
        <path id="Tracé_71" data-name="Tracé 71" d="M606.755,174.8l10.925,14,10.47-6.014-10.925-14Z" transform="translate(-525.144 -80.646)" fill="#d1ebff"/>
        <path id="Tracé_72" data-name="Tracé 72" d="M603.51,184.414a17.1,17.1,0,0,1-7.748,4.418l2.983,16.008,10.47-6.014L607.1,187.473Z" transform="translate(-528.376 -76.051)" fill="#72b5e8"/>
        <path id="Tracé_73" data-name="Tracé 73" d="M554.215,138.184l-10.531,6.181,10.925-1.382C554.408,141.367,554.284,139.768,554.215,138.184Z" transform="translate(-543.684 -89.641)" fill="#d1ebff"/>
        <path id="Tracé_74" data-name="Tracé 74" d="M576.73,181.7l-6.7,8.668,10.548-6C579.278,183.537,577.993,182.655,576.73,181.7Z" transform="translate(-535.94 -76.848)" fill="#72b5e8"/>
        <g id="Groupe_4" data-name="Groupe 4" transform="translate(0.527 5.965)" style="mix-blend-mode: color-dodge;isolation: isolate">
          <path id="Tracé_75" data-name="Tracé 75" d="M562.471,118.378l-.03-.162c-.5.192-.976.421-1.45.655C561.479,118.695,561.963,118.511,562.471,118.378Z" transform="translate(-539.123 -101.476)" fill="#fff"/>
          <path id="Tracé_76" data-name="Tracé 76" d="M553.162,142.036l-9.071,1.148c.035.176.084.353.12.529l9-1.14C553.193,142.393,553.182,142.216,553.162,142.036Z" transform="translate(-544.091 -94.474)" fill="#fff"/>
          <path id="Tracé_77" data-name="Tracé 77" d="M600.163,130.468l-2.983,12.563a87.485,87.485,0,0,1,7.748,13.365l12.449,3.764a99.141,99.141,0,0,1,4.832,16.011l1.233-.2a98.86,98.86,0,0,0-4.952-16.541l-12.449-3.764a87.472,87.472,0,0,0-7.748-13.365l2.983-12.563a99.761,99.761,0,0,0-11.923-12.566l-.41,1.381A100.393,100.393,0,0,1,600.163,130.468Z" transform="translate(-530.907 -101.783)" fill="#fff"/>
          <path id="Tracé_78" data-name="Tracé 78" d="M586.152,190.741c-14.928-8.619-27.03-29.491-27.03-46.62,0-7.567,2.375-13.112,6.3-16.221-4.538,2.922-7.328,8.75-7.328,16.953,0,17.129,12.1,38,27.028,46.621,7.537,4.35,14.348,4.736,19.249,1.857-.361.11-.743.182-1.118.265C598.6,195.288,592.645,194.491,586.152,190.741Z" transform="translate(-539.974 -98.629)" fill="#fff"/>
          <path id="Tracé_79" data-name="Tracé 79" d="M597.316,188.124a16.978,16.978,0,0,0,4.925-2.759l-.461-.392A17.1,17.1,0,0,1,597.316,188.124Z" transform="translate(-528.445 -81.852)" fill="#fff"/>
          <path id="Tracé_80" data-name="Tracé 80" d="M559.537,123.9c-.455.019,0-.355.459-.725l-11.988-10.217c-.34.47-.647.983-.083,1.046Z" transform="translate(-543.056 -103.021)" fill="#fff"/>
          <path id="Tracé_81" data-name="Tracé 81" d="M595.556,188.524l2.855,15.32c-.33-.017.321-.025.951-.084l-2.953-15.846C595.813,188.144,595.208,188.359,595.556,188.524Z" transform="translate(-528.993 -80.987)" fill="#fff" style="mix-blend-mode: color-dodge;isolation: isolate"/>
          <path id="Tracé_82" data-name="Tracé 82" d="M607.859,170.11a51.43,51.43,0,0,0-.409-6.016l-1.087.083a53.288,53.288,0,0,1,.462,6.551,41.351,41.351,0,0,1-.462,6.018l10.926,14a33.42,33.42,0,0,1-3.989,9.336l.07.868a32.53,32.53,0,0,0,4.952-10.823l-10.925-14A41.376,41.376,0,0,0,607.859,170.11Z" transform="translate(-525.786 -87.99)" fill="#fff"/>
          <path id="Tracé_83" data-name="Tracé 83" d="M572.161,107.088l6.7,16.406a41.952,41.952,0,0,1,5.477,2.632,54.179,54.179,0,0,1,5.477,3.692l.21-1.04a51.414,51.414,0,0,0-4.7-3.137,42.1,42.1,0,0,0-5.477-2.631l-6.7-16.407a33.212,33.212,0,0,0-11.923-1.2l.128.688A39.05,39.05,0,0,1,572.161,107.088Z" transform="translate(-539.055 -105.279)" fill="#fff"/>
          <path id="Tracé_84" data-name="Tracé 84" d="M575.5,182.262l-5.6,7.247c.237.212.466.44.7.648l5.674-7.339C576.013,182.629,575.752,182.455,575.5,182.262Z" transform="translate(-536.506 -82.649)" fill="#fff"/>
        </g>
      </g>
      <path id="Tracé_85" data-name="Tracé 85" d="M589.9,101.217c.083-1.731,1.272-2.487,2.655-1.687a5.431,5.431,0,0,1,2.357,4.581c-.081,1.731-1.271,2.487-2.655,1.687A5.436,5.436,0,0,1,589.9,101.217Z" transform="translate(-524.213 -77.589)" fill="#eb4680"/>
      <path id="Tracé_86" data-name="Tracé 86" d="M583.913,261.1c.054-1.152.845-1.654,1.766-1.122a3.616,3.616,0,0,1,1.568,3.047c-.054,1.152-.846,1.654-1.766,1.122A3.616,3.616,0,0,1,583.913,261.1Z" transform="translate(-525.972 -30.394)" fill="#eb4680"/>
      <g id="Groupe_6" data-name="Groupe 6" transform="translate(107.901 140.365)">
        <path id="Tracé_87" data-name="Tracé 87" d="M623.169,197.591a.647.647,0,0,1-.558-.973l3.1-5.318a.647.647,0,1,1,1.118.651l-2.267,3.887,4.577-1.409a.647.647,0,0,1,.382,1.237l-6.162,1.9A.653.653,0,0,1,623.169,197.591Z" transform="translate(-622.522 -190.978)" fill="#eb4680"/>
      </g>
      <g id="Groupe_8" data-name="Groupe 8" transform="translate(45.69 169.488)">
        <path id="Tracé_88" data-name="Tracé 88" d="M583.278,214.426a14.839,14.839,0,0,1,5.768,6.965,15.488,15.488,0,0,0,1.912-.648,5.107,5.107,0,0,1,4.441.681,15.083,15.083,0,0,1,6.843,11.8c0,7.925-13.568,10.671-13.568,10.671s-12.9-17.247-12.9-25.173c0-2.164-.917-2.83.316-3.539.106-.061,2.561-1.366,2.675-1.414A5.058,5.058,0,0,1,583.278,214.426Z" transform="translate(-574.151 -213.486)" fill="#d62d69"/>
        <path id="Tracé_89" data-name="Tracé 89" d="M581.286,215.378a15.063,15.063,0,0,1,6.061,7.713c1.144-1.844,3.426-2.236,6.061-.716a15.083,15.083,0,0,1,6.843,11.8c0,7.925-12.9,10.273-12.9,10.273s-12.9-17.247-12.9-25.173C574.444,214.944,577.507,213.2,581.286,215.378Z" transform="translate(-574.444 -213.205)" fill="#eb4680"/>
        <g id="Groupe_7" data-name="Groupe 7" transform="translate(2.315 1.141)" style="mix-blend-mode: color-dodge;isolation: isolate">
          <path id="Tracé_90" data-name="Tracé 90" d="M580.385,215.563a15.614,15.614,0,0,1,6.366,7.724c.232-.375-.088-.235.233-.486a14.932,14.932,0,0,0-5.89-7.3c-2.065-1.192-3.635-1.474-4.862-.718A5.314,5.314,0,0,1,580.385,215.563Z" transform="translate(-576.233 -214.367)" fill="#fff" opacity="0.7"/>
          <path id="Tracé_91" data-name="Tracé 91" d="M590.306,220.774c-2.06-1.189-3.668-1.214-4.694-.576a5.3,5.3,0,0,1,4.138.77,15.083,15.083,0,0,1,6.842,11.8c0,3.683-2.786,6.159-5.768,7.757,3.333-1.562,6.326-3.853,6.326-7.951A15.081,15.081,0,0,0,590.306,220.774Z" transform="translate(-573.476 -212.775)" fill="#fff" opacity="0.7"/>
        </g>
      </g>
      <g id="Groupe_9" data-name="Groupe 9" transform="translate(68.467 24.827)">
        <path id="Tracé_92" data-name="Tracé 92" d="M634.1,222.957l-.87-.958c6.964-6.322,10.646-16.629,10.646-29.806,0-32.789-23.249-72.887-51.824-89.385l.647-1.121c28.931,16.7,52.471,57.305,52.471,90.506C645.165,205.745,641.338,216.384,634.1,222.957Z" transform="translate(-592.047 -101.688)" fill="#eb4680"/>
      </g>
      <g id="Groupe_13" data-name="Groupe 13" transform="translate(83.266 121.423)">
        <g id="Groupe_10" data-name="Groupe 10" transform="translate(47.133)">
          <path id="Tracé_93" data-name="Tracé 93" d="M640.557,178.93h-.01a.647.647,0,0,1-.637-.656q.01-.639.009-1.288a.647.647,0,0,1,1.294,0q0,.658-.009,1.307A.647.647,0,0,1,640.557,178.93Z" transform="translate(-639.91 -176.34)" fill="#a8cff0"/>
        </g>
        <g id="Groupe_11" data-name="Groupe 11" transform="translate(5.117 5.149)">
          <path id="Tracé_94" data-name="Tracé 94" d="M614.49,222.6a.647.647,0,0,1-.005-1.294c.842-.007,1.69-.04,2.523-.1a.647.647,0,0,1,.1,1.291c-.861.065-1.739.1-2.609.106Zm-3.848-.149-.056,0q-1.279-.109-2.589-.292a.648.648,0,0,1-.551-.73.66.66,0,0,1,.731-.551q1.273.18,2.518.285a.647.647,0,0,1-.053,1.291Zm10.23-.443a.647.647,0,0,1-.115-1.284c.829-.151,1.658-.335,2.46-.546a.647.647,0,0,1,.329,1.251c-.834.22-1.694.41-2.555.568A.713.713,0,0,1,620.872,222Zm6.167-1.752A.647.647,0,0,1,626.8,219c.779-.308,1.551-.651,2.3-1.017a.646.646,0,1,1,.571,1.159c-.775.383-1.581.74-2.39,1.061A.643.643,0,0,1,627.039,220.252Zm5.682-2.953a.647.647,0,0,1-.357-1.187c.7-.463,1.387-.959,2.041-1.471a.647.647,0,0,1,.8,1.018c-.681.534-1.4,1.049-2.126,1.532A.637.637,0,0,1,632.72,217.3Zm4.964-4.058a.648.648,0,0,1-.457-1.105c.59-.591,1.163-1.212,1.707-1.848a.647.647,0,0,1,.983.842c-.564.66-1.161,1.306-1.775,1.92A.646.646,0,0,1,637.684,213.241Zm4.083-4.942a.646.646,0,0,1-.534-1.012c.474-.691.928-1.408,1.355-2.13a.647.647,0,1,1,1.114.657c-.44.747-.911,1.488-1.4,2.2A.649.649,0,0,1,641.766,208.3Zm3.175-5.57a.63.63,0,0,1-.276-.062.647.647,0,0,1-.309-.862q.532-1.128,1.012-2.319a.647.647,0,1,1,1.2.484q-.5,1.225-1.043,2.387A.646.646,0,0,1,644.942,202.729Zm2.325-5.978a.681.681,0,0,1-.2-.03.648.648,0,0,1-.422-.813q.375-1.194.7-2.438a.647.647,0,0,1,1.251.33q-.336,1.275-.722,2.5A.646.646,0,0,1,647.267,196.751Zm1.571-6.224a.584.584,0,0,1-.126-.013.647.647,0,0,1-.512-.758c.161-.822.307-1.655.436-2.505a.647.647,0,0,1,1.28.2q-.2,1.3-.444,2.556A.648.648,0,0,1,648.838,190.527Zm.915-6.353a.512.512,0,0,1-.064,0,.646.646,0,0,1-.582-.705q.12-1.252.2-2.539a.627.627,0,0,1,.686-.606.648.648,0,0,1,.606.686c-.054.873-.124,1.734-.2,2.583A.648.648,0,0,1,649.753,184.174Z" transform="translate(-607.439 -180.319)" fill="#a8cff0"/>
        </g>
        <g id="Groupe_12" data-name="Groupe 12" transform="translate(0 44.697)">
          <path id="Tracé_95" data-name="Tracé 95" d="M605.391,212.472a.735.735,0,0,1-.138-.014c-.426-.094-.85-.194-1.277-.3a.647.647,0,0,1,.311-1.256q.627.157,1.244.292a.647.647,0,0,1-.139,1.278Z" transform="translate(-603.484 -210.883)" fill="#a8cff0"/>
        </g>
      </g>
      <g id="Groupe_17" data-name="Groupe 17">
        <g id="Groupe_14" data-name="Groupe 14" transform="translate(1.448 62.725)">
          <path id="Tracé_96" data-name="Tracé 96" d="M541.121,133.547a.648.648,0,0,1-.635-.532c-.078-.428-.154-.857-.224-1.284a.647.647,0,1,1,1.276-.213c.071.422.144.844.221,1.267a.648.648,0,0,1-.521.752A.719.719,0,0,1,541.121,133.547Z" transform="translate(-540.253 -130.976)" fill="#a8cff0"/>
        </g>
        <g id="Groupe_15" data-name="Groupe 15">
          <path id="Tracé_97" data-name="Tracé 97" d="M660.737,160.942a.651.651,0,0,1-.6-.4q-.487-1.209-1-2.412a.647.647,0,1,1,1.19-.507q.516,1.215,1.012,2.434a.648.648,0,0,1-.6.89Zm-2.6-6.023a.648.648,0,0,1-.589-.379q-.542-1.186-1.105-2.367a.647.647,0,0,1,1.167-.559q.569,1.192,1.115,2.389a.648.648,0,0,1-.319.858A.66.66,0,0,1,658.142,154.918Zm-2.851-5.906a.649.649,0,0,1-.577-.355q-.59-1.163-1.2-2.319a.647.647,0,1,1,1.143-.606q.617,1.165,1.215,2.338a.648.648,0,0,1-.285.871A.662.662,0,0,1,655.291,149.013Zm-3.089-5.781a.647.647,0,0,1-.564-.33q-.641-1.139-1.3-2.268a.646.646,0,0,1,1.117-.651q.664,1.137,1.307,2.285a.646.646,0,0,1-.563.964Zm-111.56-.6a.646.646,0,0,1-.64-.563q-.173-1.312-.315-2.616a.647.647,0,0,1,1.287-.14q.14,1.291.311,2.587a.647.647,0,0,1-.558.726A.632.632,0,0,1,540.643,142.635Zm108.237-5.052a.648.648,0,0,1-.551-.307q-.683-1.112-1.386-2.211a.646.646,0,1,1,1.09-.7q.708,1.106,1.4,2.228a.646.646,0,0,1-.551.986Zm-108.89-1.467a.646.646,0,0,1-.644-.6q-.089-1.322-.142-2.635a.648.648,0,0,1,.622-.672h.025a.646.646,0,0,1,.647.621q.051,1.293.14,2.6a.647.647,0,0,1-.6.688Zm105.339-4.036a.646.646,0,0,1-.536-.285q-.732-1.081-1.478-2.151a.647.647,0,0,1,1.062-.74q.749,1.075,1.487,2.166a.647.647,0,0,1-.536,1.009Zm-105.548-2.509h0a.646.646,0,0,1-.644-.65c0-.893.019-1.773.052-2.641a.647.647,0,0,1,.647-.622h.023a.648.648,0,0,1,.624.67c-.032.855-.048,1.721-.052,2.6A.648.648,0,0,1,539.781,129.571Zm101.776-2.84a.644.644,0,0,1-.52-.263q-.776-1.05-1.566-2.085a.647.647,0,1,1,1.029-.785q.8,1.042,1.577,2.1a.647.647,0,0,1-.52,1.031Zm-101.49-3.7-.057,0a.648.648,0,0,1-.589-.7q.114-1.335.273-2.629a.653.653,0,0,1,.721-.562.646.646,0,0,1,.564.721c-.1.846-.193,1.707-.269,2.581A.647.647,0,0,1,540.067,123.03Zm97.492-1.48a.647.647,0,0,1-.5-.241q-.817-1.015-1.652-2.012a.648.648,0,0,1,.994-.831q.84,1.007,1.667,2.032a.646.646,0,0,1-.5,1.052Zm-4.217-5a.646.646,0,0,1-.485-.219q-.862-.978-1.738-1.934a.646.646,0,1,1,.952-.873q.887.965,1.756,1.953a.646.646,0,0,1-.485,1.074Zm-92.414-.009a.6.6,0,0,1-.117-.012.647.647,0,0,1-.521-.752q.243-1.322.533-2.594a.647.647,0,1,1,1.261.289q-.283,1.246-.52,2.539A.648.648,0,0,1,540.927,116.541Zm87.971-4.793a.651.651,0,0,1-.465-.2q-.912-.939-1.836-1.854a.647.647,0,0,1,.911-.92q.931.924,1.853,1.871a.645.645,0,0,1-.013.915A.637.637,0,0,1,628.9,111.748Zm-86.44-1.571a.673.673,0,0,1-.188-.027.646.646,0,0,1-.431-.807q.392-1.287.836-2.518a.646.646,0,1,1,1.215.44q-.433,1.2-.813,2.455A.647.647,0,0,1,542.458,110.177Zm81.761-3.015a.643.643,0,0,1-.441-.173q-.955-.891-1.927-1.756a.647.647,0,0,1,.863-.965q.978.873,1.945,1.775a.646.646,0,0,1-.44,1.119Zm-79.453-3.107a.646.646,0,0,1-.588-.916q.561-1.227,1.183-2.382a.647.647,0,0,1,1.14.612q-.6,1.122-1.148,2.31A.645.645,0,0,1,544.767,104.056Zm74.539-1.227a.647.647,0,0,1-.416-.15q-1-.837-2.018-1.646a.647.647,0,1,1,.806-1.012q1.027.817,2.042,1.665a.646.646,0,0,1-.414,1.143Zm-5.15-4.05a.645.645,0,0,1-.384-.127q-1.052-.776-2.113-1.52a.647.647,0,1,1,.743-1.06q1.073.753,2.139,1.54a.646.646,0,0,1-.384,1.167Zm-66.2-.433a.639.639,0,0,1-.361-.11.647.647,0,0,1-.176-.9c.5-.743,1.027-1.469,1.567-2.157a.647.647,0,0,1,1.019.8c-.52.664-1.029,1.364-1.512,2.081A.644.644,0,0,1,547.954,98.345Zm60.815-3.288a.641.641,0,0,1-.349-.1q-1.1-.706-2.209-1.378a.646.646,0,1,1,.669-1.106q1.124.679,2.24,1.395a.647.647,0,0,1-.351,1.192ZM552.083,93.28a.648.648,0,0,1-.461-1.1c.626-.631,1.281-1.245,1.95-1.822a.647.647,0,1,1,.844.981c-.642.554-1.272,1.143-1.874,1.751A.646.646,0,0,1,552.083,93.28Zm51.054-1.567a.645.645,0,0,1-.311-.079q-1.155-.631-2.3-1.209a.647.647,0,1,1,.583-1.155q1.163.588,2.338,1.228a.647.647,0,0,1-.309,1.215Zm-46.012-2.589a.647.647,0,0,1-.357-1.187c.742-.492,1.511-.955,2.288-1.379a.647.647,0,0,1,.62,1.136c-.744.406-1.483.85-2.193,1.322A.644.644,0,0,1,557.125,89.123Zm40.141-.311a.653.653,0,0,1-.263-.056q-1.2-.532-2.392-1.005a.647.647,0,1,1,.48-1.2q1.209.481,2.436,1.024a.648.648,0,0,1-.261,1.24Zm-6.109-2.36a.64.64,0,0,1-.2-.032q-1.25-.411-2.479-.757a.647.647,0,1,1,.351-1.246q1.256.353,2.532.774a.647.647,0,0,1-.2,1.262Zm-28.234-.34a.647.647,0,0,1-.237-1.25c.818-.321,1.665-.615,2.523-.872a.647.647,0,0,1,.371,1.24c-.823.247-1.637.529-2.422.837A.656.656,0,0,1,562.923,86.112Zm21.914-1.355a.676.676,0,0,1-.132-.014q-1.285-.262-2.545-.452a.648.648,0,0,1,.191-1.281q1.295.2,2.615.466a.647.647,0,0,1-.129,1.281Zm-15.623-.406a.647.647,0,0,1-.111-1.284c.864-.153,1.752-.276,2.64-.366a.647.647,0,0,1,.131,1.287c-.855.087-1.712.206-2.545.352A.573.573,0,0,1,569.215,84.351Zm9.134-.474h-.04q-1.3-.083-2.578-.083a.647.647,0,1,1,0-1.294q1.314,0,2.659.084a.647.647,0,0,1-.042,1.293Z" transform="translate(-539.134 -82.501)" fill="#a8cff0"/>
        </g>
        <g id="Groupe_16" data-name="Groupe 16" transform="translate(122.417 80.887)">
          <path id="Tracé_98" data-name="Tracé 98" d="M634.837,147.521a.647.647,0,0,1-.608-.424l-.448-1.21a.648.648,0,1,1,1.214-.452l.45,1.218a.648.648,0,0,1-.386.829A.676.676,0,0,1,634.837,147.521Z" transform="translate(-633.741 -145.012)" fill="#a8cff0"/>
        </g>
      </g>
      <g id="Groupe_21" data-name="Groupe 21" transform="translate(62.103 177.432)">
        <g id="Groupe_18" data-name="Groupe 18" transform="translate(36.802)">
          <path id="Tracé_99" data-name="Tracé 99" d="M616.71,222.115a.649.649,0,0,1-.6-.4q-.241-.594-.489-1.189a.647.647,0,0,1,1.193-.5c.168.4.334.8.5,1.2a.65.65,0,0,1-.357.844A.67.67,0,0,1,616.71,222.115Z" transform="translate(-615.57 -219.625)" fill="#eb4680"/>
        </g>
        <g id="Groupe_19" data-name="Groupe 19" transform="translate(4.604 4.79)">
          <path id="Tracé_100" data-name="Tracé 100" d="M606.169,281.263h0c-.863,0-1.743-.048-2.617-.131a.647.647,0,0,1-.583-.705.672.672,0,0,1,.705-.584c.834.079,1.677.122,2.5.126a.647.647,0,0,1,0,1.294Zm3.829-.27a.647.647,0,0,1-.094-1.287,22.112,22.112,0,0,0,2.437-.5.648.648,0,0,1,.334,1.251,23.824,23.824,0,0,1-2.579.532A.609.609,0,0,1,610,280.992Zm-10.183-.452a.616.616,0,0,1-.136-.016c-.827-.177-1.677-.393-2.527-.639a.647.647,0,0,1,.359-1.243c.823.238,1.643.446,2.442.62a.647.647,0,0,1-.137,1.278Zm16.3-1.383a.647.647,0,0,1-.276-1.232,20.123,20.123,0,0,0,2.173-1.194.646.646,0,1,1,.692,1.091,20.515,20.515,0,0,1-2.314,1.273A.661.661,0,0,1,616.112,279.157Zm-22.418-.49a.634.634,0,0,1-.237-.045c-.789-.311-1.586-.647-2.393-1.016a.647.647,0,1,1,.538-1.177q1.174.538,2.327.989a.647.647,0,0,1-.236,1.25Zm27.7-3.087a.647.647,0,0,1-.44-1.121,21.692,21.692,0,0,0,1.72-1.795.646.646,0,0,1,.983.839,22.488,22.488,0,0,1-1.823,1.9A.64.64,0,0,1,621.39,275.58Zm4.023-4.96a.637.637,0,0,1-.336-.094.647.647,0,0,1-.215-.89c.426-.7.829-1.434,1.2-2.192a.647.647,0,0,1,1.163.568c-.39.794-.813,1.567-1.259,2.3A.648.648,0,0,1,625.413,270.62Zm2.694-5.8a.634.634,0,0,1-.21-.036.647.647,0,0,1-.4-.822c.267-.776.511-1.585.727-2.407a.647.647,0,0,1,1.251.331c-.225.85-.479,1.689-.756,2.5A.646.646,0,0,1,628.107,264.824Zm1.54-6.21a.6.6,0,0,1-.107-.009.645.645,0,0,1-.532-.744q.2-1.221.338-2.5a.647.647,0,0,1,1.287.137q-.142,1.318-.349,2.578A.647.647,0,0,1,629.647,258.615Zm.6-6.374h-.022a.648.648,0,0,1-.625-.669c.018-.58.027-1.17.027-1.766l-.005-.767a.648.648,0,0,1,.638-.656.682.682,0,0,1,.656.639l.005.784c0,.612-.009,1.214-.027,1.81A.649.649,0,0,1,630.251,252.24Zm-.15-6.405a.649.649,0,0,1-.644-.6q-.093-1.26-.237-2.53a.647.647,0,1,1,1.286-.145q.144,1.293.242,2.576a.648.648,0,0,1-.6.695Zm-.774-6.362a.647.647,0,0,1-.637-.54q-.21-1.248-.462-2.5a.647.647,0,1,1,1.269-.255q.254,1.275.469,2.541a.648.648,0,0,1-.531.745A.634.634,0,0,1,629.327,239.473Zm-1.313-6.272a.647.647,0,0,1-.628-.489q-.307-1.232-.656-2.461a.647.647,0,1,1,1.246-.352q.351,1.25.665,2.5a.647.647,0,0,1-.47.785A.666.666,0,0,1,628.014,233.2Zm-1.786-6.157a.645.645,0,0,1-.613-.445q-.4-1.205-.829-2.408a.647.647,0,1,1,1.218-.437q.437,1.219.84,2.442a.647.647,0,0,1-.615.849Z" transform="translate(-590.687 -223.327)" fill="#eb4680"/>
        </g>
        <g id="Groupe_20" data-name="Groupe 20" transform="translate(0 55.45)">
          <path id="Tracé_101" data-name="Tracé 101" d="M588.906,264.409a.638.638,0,0,1-.311-.08q-.569-.313-1.141-.642a.647.647,0,1,1,.644-1.122c.374.215.747.426,1.118.629a.647.647,0,0,1-.31,1.215Z" transform="translate(-587.129 -262.478)" fill="#eb4680"/>
        </g>
      </g>
      <g id="Groupe_22" data-name="Groupe 22" transform="translate(97.867 175.813)">
        <path id="Tracé_102" data-name="Tracé 102" d="M615.415,223.118h-.041a.646.646,0,0,1-.6-.686l.215-3.451a.646.646,0,0,1,1.03-.479l2.911,2.157a.646.646,0,1,1-.77,1.038l-1.955-1.448-.14,2.263A.648.648,0,0,1,615.415,223.118Z" transform="translate(-614.768 -218.374)" fill="#eb4680"/>
      </g>
    </g>
    <path id="Tracé_103" data-name="Tracé 103" d="M439.849,135.178c-.023-4.248-6.007-7.7-13.364-7.716s-13.3,3.42-13.28,7.667c.021,3.888,5.039,7.1,11.528,7.632l.012,2.153c-1.231.188-2.138.828-2.134,1.6l.04,7.35c.005.92,1.3,1.668,2.895,1.672l2.183,0c1.594,0,2.883-.741,2.878-1.661l-.04-7.35c0-.771-.919-1.416-2.152-1.607l-.012-2.153C434.888,142.261,439.87,139.065,439.849,135.178Z" transform="translate(33.226 19.11)" fill="#fff"/>
    <g id="Groupe_25" data-name="Groupe 25" transform="translate(386.813 62.453)">
      <path id="Tracé_104" data-name="Tracé 104" d="M614.662,454.254,383.346,320.626c-8.956-5.171-16.215-19.042-16.215-30.982V79.217c0-11.941,7.259-17.428,16.215-12.258L614.662,200.587c8.956,5.171,16.215,19.042,16.215,30.982V442C630.876,453.937,623.617,459.424,614.662,454.254Z" transform="translate(-367.131 -61.7)" fill="#d1ebff"/>
      <path id="Tracé_105" data-name="Tracé 105" d="M619.681,198.027,388.365,64.4c-3.543-2.046-6.82-2.424-9.489-1.394-.339.132-6.676,3.4-7,3.582l-.014.009c2.763-1.342,6.267-1.091,10.086,1.115L613.27,201.34c8.955,5.171,16.215,19.042,16.215,30.982V442.749c0,7.451-2.827,12.388-7.131,13.792a2.691,2.691,0,0,0,1.421-.484c.206-.118,6.928-3.758,7.123-3.895,3.081-2.157,5-6.59,5-12.727V229.01C635.9,217.069,628.635,203.2,619.681,198.027Z" transform="translate(-365.739 -62.453)" fill="#3f92d1"/>
      <path id="Tracé_106" data-name="Tracé 106" d="M617.865,198.7,386.549,65.072c-3.543-2.046-6.82-2.424-9.489-1.392-.339.131-4.86,2.532-5.18,2.71l-.014.009c2.763-1.342,6.267-1.091,10.086,1.115L613.27,201.142Z" transform="translate(-365.739 -62.255)" fill="#4f9fdb"/>
      <path id="Tracé_107" data-name="Tracé 107" d="M613.8,200.283,382.483,66.654c-3.672-2.121-7.048-2.422-9.767-1.247a11.966,11.966,0,0,1,7.821,1.831L611.853,200.867c8.954,5.171,16.214,19.041,16.214,30.982V442.275c0,7.044-2.537,11.816-6.449,13.506,5-.793,8.394-5.933,8.394-14.09V231.266C630.012,219.324,622.753,205.454,613.8,200.283Z" transform="translate(-365.489 -61.784)" fill="#fff" style="mix-blend-mode: screen;isolation: isolate"/>
      <path id="Tracé_108" data-name="Tracé 108" d="M374.169,90.449V282.165c0,9.366,4.458,18.518,11.665,23.1L614.68,437.45l.381.217a3.1,3.1,0,0,0,4.64-2.693V232.29Z" transform="translate(-365.062 -54.223)" fill="#03336e"/>
      <path id="Tracé_109" data-name="Tracé 109" d="M619.373,435.943c-.164-.093-.294-.168-.379-.217L390.147,303.537c-7.207-4.579-11.665-13.731-11.665-23.1V92.94l-4.313-2.491V282.165c0,9.366,4.458,18.518,11.665,23.1L614.68,437.45l.381.217A3.1,3.1,0,0,0,619.51,436C619.465,435.975,619.419,435.967,619.373,435.943Z" transform="translate(-365.062 -54.223)" fill="#001a46"/>
      <g id="Groupe_24" data-name="Groupe 24" transform="translate(218.736 138.517)">
        <path id="Tracé_110" data-name="Tracé 110" d="M553.967,182.993a9.833,9.833,0,0,0,4.463,7.7c2.464,1.423,4.463.283,4.463-2.544a9.837,9.837,0,0,0-4.463-7.7C555.965,179.026,553.967,180.166,553.967,182.993Z" transform="translate(-530.946 -166.464)" fill="#fc0"/>
        <path id="Tracé_111" data-name="Tracé 111" d="M545.071,177.826a9.831,9.831,0,0,0,4.463,7.7c2.465,1.423,4.463.285,4.463-2.544a9.831,9.831,0,0,0-4.463-7.7C547.069,173.859,545.071,175,545.071,177.826Z" transform="translate(-533.561 -167.983)" fill="#eb4680"/>
        <path id="Tracé_112" data-name="Tracé 112" d="M536.176,172.658a9.831,9.831,0,0,0,4.463,7.7c2.464,1.423,4.463.285,4.463-2.544a9.837,9.837,0,0,0-4.463-7.7C538.174,168.692,536.176,169.831,536.176,172.658Z" transform="translate(-536.176 -169.502)" fill="#0fbab8"/>
      </g>
    </g>
    <path id="Tracé_113" data-name="Tracé 113" d="M495.323,169.3l-16.784-9.69c-1.7-.978-3.071-.194-3.071,1.751a6.765,6.765,0,0,0,3.071,5.3l16.784,9.69c1.7.98,3.071.2,3.071-1.751A6.767,6.767,0,0,0,495.323,169.3Zm27.634,15.954-16.785-9.69c-1.7-.98-3.071-.2-3.071,1.751a6.764,6.764,0,0,0,3.071,5.295l16.785,9.692c1.7.978,3.071.2,3.071-1.751A6.768,6.768,0,0,0,522.957,185.254Zm27.632,15.954-16.784-9.692c-1.7-.978-3.07-.194-3.07,1.751a6.765,6.765,0,0,0,3.07,5.3l16.784,9.69c1.7.98,3.07.2,3.07-1.751A6.763,6.763,0,0,0,550.59,201.208Zm27.632,15.953-16.784-9.69c-1.7-.979-3.071-.2-3.071,1.751a6.764,6.764,0,0,0,3.071,5.3l16.784,9.69c1.7.978,3.071.2,3.071-1.751A6.765,6.765,0,0,0,578.222,217.161Z" transform="translate(51.529 28.436)" fill="#72b5e8"/>
    <g id="Groupe_29" data-name="Groupe 29" transform="translate(310.917 116.245)">
      <g id="Groupe_26" data-name="Groupe 26" transform="translate(11.769)">
        <path id="Tracé_114" data-name="Tracé 114" d="M439.344,178.8v72.234l7.9-4.625V173.974Z" transform="translate(-281.775 -83.463)" fill="#2672ab"/>
        <path id="Tracé_115" data-name="Tracé 115" d="M475.17,198.285v72.234l-157.6-90.378V107.7Z" transform="translate(-317.571 -102.944)" fill="#3f92d1"/>
        <path id="Tracé_116" data-name="Tracé 116" d="M317.571,108.783l157.6,90.583,7.872-4.83-157.65-90.51Z" transform="translate(-317.571 -104.025)" fill="#72b5e8"/>
        <path id="Tracé_117" data-name="Tracé 117" d="M317.571,107.7l157.6,90.583,7.872-4.83-7.893,3.73Z" transform="translate(-317.571 -102.944)" fill="#fff" opacity="0.7"/>
      </g>
      <g id="Groupe_27" data-name="Groupe 27" transform="translate(75.006 52.986)">
        <path id="Tracé_118" data-name="Tracé 118" d="M432.829,220.4v-3.067L383.09,189.061v3.067Z" transform="translate(-361.55 -132.015)" fill="#fff"/>
        <path id="Tracé_119" data-name="Tracé 119" d="M366.443,144.974v3.067L450.05,195.87V192.8Z" transform="translate(-366.443 -144.974)" fill="#fff"/>
        <path id="Tracé_120" data-name="Tracé 120" d="M395.881,181.671l-29.438-17v3.067l29.438,17Z" transform="translate(-366.443 -139.183)" fill="#fff"/>
        <path id="Tracé_121" data-name="Tracé 121" d="M404.59,196.549v3.067l12.161,6.58v-3.067Z" transform="translate(-355.23 -129.814)" fill="#fff"/>
        <path id="Tracé_122" data-name="Tracé 122" d="M413.916,182.233l-47.473-27.409v3.067L413.916,185.3Z" transform="translate(-366.443 -142.079)" fill="#fff"/>
        <path id="Tracé_123" data-name="Tracé 123" d="M383.831,169.789l-17.389-10.04v3.067l17.389,10.039Z" transform="translate(-366.443 -140.631)" fill="#fff"/>
        <path id="Tracé_124" data-name="Tracé 124" d="M376.465,183.378l33.373,19.268v-3.067l-33.373-19.268Z" transform="translate(-363.497 -134.587)" fill="#fff"/>
        <path id="Tracé_125" data-name="Tracé 125" d="M382.215,168.855v3.067l46.855,26.61v-3.067Z" transform="translate(-361.807 -137.954)" fill="#fff"/>
        <path id="Tracé_126" data-name="Tracé 126" d="M391.527,179.157v3.067l23.426,13.525v-3.067Z" transform="translate(-359.069 -134.926)" fill="#fff"/>
        <path id="Tracé_127" data-name="Tracé 127" d="M376.391,180.269l-9.948-5.743v3.067l9.948,5.744Z" transform="translate(-366.443 -136.288)" fill="#fff"/>
        <path id="Tracé_128" data-name="Tracé 128" d="M405.465,180.421,438.579,199.1v-3.067l-33.115-18.677Z" transform="translate(-354.972 -135.456)" fill="#fff"/>
        <path id="Tracé_129" data-name="Tracé 129" d="M420.759,193.835l13.325,7.693v-3.067l-13.325-7.693Z" transform="translate(-350.477 -131.513)" fill="#fff"/>
        <path id="Tracé_130" data-name="Tracé 130" d="M366.443,152.966,450.05,200.8v-3.067L366.443,149.9Z" transform="translate(-366.443 -143.526)" fill="#fff"/>
        <path id="Tracé_131" data-name="Tracé 131" d="M411.965,194.024l24.7,13.822v-3.067l-24.7-13.822Z" transform="translate(-353.062 -131.457)" fill="#fff"/>
        <path id="Tracé_132" data-name="Tracé 132" d="M384.964,190.143,366.443,179.45v3.067l18.521,10.693Z" transform="translate(-366.443 -134.84)" fill="#fff"/>
        <path id="Tracé_133" data-name="Tracé 133" d="M423.863,215.328l9.308,5.374v-3.067l-9.308-5.374Z" transform="translate(-349.564 -125.195)" fill="#fff"/>
        <path id="Tracé_134" data-name="Tracé 134" d="M416.321,206.048l19.067,11.008V213.99l-19.067-11.008Z" transform="translate(-351.781 -127.923)" fill="#fff"/>
        <path id="Tracé_135" data-name="Tracé 135" d="M366.443,172.667,450.05,220.5v-3.067L366.443,169.6Z" transform="translate(-366.443 -137.735)" fill="#fff"/>
      </g>
      <path id="Tracé_136" data-name="Tracé 136" d="M361.164,139.449l-27.487-15.9c-4.8-2.774-8.7.171-8.7,6.578v31.816c0,6.406,3.9,13.85,8.7,16.625l27.487,15.9c4.8,2.776,8.7-.17,8.7-6.577V156.074C369.865,149.666,365.968,142.224,361.164,139.449Z" transform="translate(-303.626 -98.593)" fill="#2672ab"/>
      <path id="Tracé_137" data-name="Tracé 137" d="M364.561,191.863l-27.487-15.9c-4.8-2.774-8.7-10.218-8.7-16.626V127.524a10.422,10.422,0,0,1,1.077-4.966c-2.667.443-4.473,3.193-4.473,7.554v31.814c0,6.408,3.9,13.852,8.7,16.626l27.487,15.9c3.285,1.9,6.144,1.118,7.624-1.612A6.4,6.4,0,0,1,364.561,191.863Z" transform="translate(-303.626 -98.577)" fill="#084c94"/>
      <g id="Groupe_28" data-name="Groupe 28" transform="translate(0 30.184)">
        <path id="Tracé_138" data-name="Tracé 138" d="M344.664,146.324l-27.487-15.9c-4.8-2.774-8.7.171-8.7,6.578v31.816c0,6.406,3.9,13.85,8.7,16.625l27.487,15.9c4.8,2.776,8.7-.169,8.7-6.577V162.949C353.365,156.541,349.469,149.1,344.664,146.324Z" transform="translate(-308.476 -126.756)" fill="#0fbab8"/>
        <path id="Tracé_139" data-name="Tracé 139" d="M348.478,144.291l-27.486-15.9c-2.059-1.188-3.947-1.32-5.436-.587l-.048-.052-4.755,2.792.018.058c1.532-.912,3.536-.853,5.737.418l27.486,15.9c4.8,2.774,8.7,10.217,8.7,16.625v31.816c0,3.115-.925,5.4-2.424,6.62l2.653-1.747a7.831,7.831,0,0,0,4.255-7.5V160.916C357.179,154.51,353.284,147.065,348.478,144.291Z" transform="translate(-307.807 -127.352)" fill="#0ba19f"/>
        <path id="Tracé_140" data-name="Tracé 140" d="M344.455,146.009l-27.486-15.9c-2.387-1.379-4.548-1.343-6.12-.176a5.879,5.879,0,0,1,5.062.745l27.486,15.9c4.806,2.774,8.7,10.217,8.7,16.625V195.02c0,3.225-.988,5.569-2.581,6.752,2.2-.835,3.639-3.435,3.639-7.322V162.635C353.155,156.227,349.26,148.784,344.455,146.009Z" transform="translate(-307.779 -126.848)" fill="#fff" opacity="0.7"/>
        <path id="Tracé_141" data-name="Tracé 141" d="M314.111,136.972v36.421l29.808,17.216v-36.42Zm27.9,50.328-25.986-15.011V140.282l25.986,15.01Z" transform="translate(-306.82 -124.524)" fill="#fff"/>
        <path id="Tracé_142" data-name="Tracé 142" d="M333.8,156.875c0,2.386-1.686,3.346-3.765,2.147a8.3,8.3,0,0,1-3.765-6.494c0-2.386,1.686-3.347,3.765-2.147A8.3,8.3,0,0,1,333.8,156.875Z" transform="translate(-303.246 -120.734)" fill="#fff"/>
        <path id="Tracé_143" data-name="Tracé 143" d="M314.883,159.919l7.761-10.03,7.88,19.94,5.731-4.657,6.328,17.194-.119,1.741L315,169.421Z" transform="translate(-306.593 -120.727)" fill="#fff"/>
      </g>
    </g>
    <g id="Groupe_32" data-name="Groupe 32" transform="translate(639.048 154.854)">
      <g id="Groupe_30" data-name="Groupe 30" transform="translate(0 0)">
        <path id="Tracé_144" data-name="Tracé 144" d="M603.531,165.462c0,4.949-1.708,8.455-4.485,10.151-.083.052-4.743,2.942-4.828,2.989-2.89,1.616-1.042-2.05-5.428-4.582-8.83-5.1-15.987-17.444-15.987-27.575,0-5.01-4.632-5.05-1.795-6.723.079-.047,5.295-3.024,5.375-3.068,2.882-1.56,6.819-1.273,11.161,1.234C596.373,142.985,603.531,155.33,603.531,165.462Z" transform="translate(-559.705 -133.325)" fill="#fc0"/>
        <path id="Tracé_145" data-name="Tracé 145" d="M582.614,140c-4.233-2.443-8.077-2.773-10.938-1.343,2.667-.745,5.974-.188,9.557,1.88,8.83,5.1,15.987,17.444,15.987,27.575,0,5.274-1.942,8.9-5.049,10.458,3.9-1.092,6.43-4.975,6.43-10.995C598.6,157.443,591.444,145.1,582.614,140Z" transform="translate(-559.239 -132.703)" fill="#fff"/>
        <ellipse id="Ellipse_1" data-name="Ellipse 1" cx="13.012" cy="22.539" rx="13.012" ry="22.539" transform="matrix(0.863, -0.505, 0.505, 0.863, 0, 13.134)" fill="#ffd70f"/>
      </g>
      <path id="Tracé_146" data-name="Tracé 146" d="M578.348,149.847c0,1.423-1.007,2-2.248,1.281a4.953,4.953,0,0,1-2.246-3.875c0-1.423,1.007-2,2.246-1.28A4.949,4.949,0,0,1,578.348,149.847Z" transform="translate(-558.599 -130.394)" fill="#d99f00"/>
      <path id="Tracé_147" data-name="Tracé 147" d="M585.369,153.9c0,1.423-1.005,2-2.246,1.281a4.949,4.949,0,0,1-2.246-3.875c0-1.423,1.005-2,2.246-1.28A4.948,4.948,0,0,1,585.369,153.9Z" transform="translate(-556.534 -129.202)" fill="#d99f00"/>
      <path id="Tracé_148" data-name="Tracé 148" d="M572.541,153.428l2.095.355a15.269,15.269,0,0,0,6.432,8.921c2.8,1.615,5.354,1.082,6.366-1.325l2.074,2.121c-1.342,3.191-4.733,3.9-8.441,1.756C577.248,163.05,573.821,158.3,572.541,153.428Z" transform="translate(-558.984 -128.111)" fill="#d99f00"/>
      <path id="Tracé_149" data-name="Tracé 149" d="M576.758,150.661a4.948,4.948,0,0,1-2.248-3.874,1.881,1.881,0,0,1,.3-1.095c-.578.132-.959.681-.959,1.553a4.953,4.953,0,0,0,2.246,3.875c.837.483,1.558.369,1.945-.186A1.8,1.8,0,0,1,576.758,150.661Z" transform="translate(-558.599 -130.385)" fill="#b08100"/>
      <path id="Tracé_150" data-name="Tracé 150" d="M583.778,154.715a4.95,4.95,0,0,1-2.246-3.875,1.87,1.87,0,0,1,.3-1.093c-.578.132-.959.681-.959,1.553a4.949,4.949,0,0,0,2.246,3.875c.836.483,1.558.369,1.945-.186A1.8,1.8,0,0,1,583.778,154.715Z" transform="translate(-556.534 -129.194)" fill="#b08100"/>
      <g id="Groupe_31" data-name="Groupe 31" transform="translate(13.557 25.318)">
        <path id="Tracé_151" data-name="Tracé 151" d="M584.526,159.836l-.257-.264a3.835,3.835,0,0,1-.959,1.374A3.369,3.369,0,0,0,584.526,159.836Z" transform="translate(-569.376 -151.623)" fill="#b08100"/>
        <path id="Tracé_152" data-name="Tracé 152" d="M581.724,164.8c-3.663-2.114-6.959-6.572-8.353-11.226l-.831-.14c1.28,4.868,4.707,9.621,8.527,11.825,2.791,1.612,5.4,1.608,7.095.148C586.489,166.375,584.177,166.212,581.724,164.8Z" transform="translate(-572.541 -153.429)" fill="#b08100"/>
      </g>
    </g>
    <g id="Groupe_40" data-name="Groupe 40" transform="translate(502.569 242.022)">
      <g id="Groupe_33" data-name="Groupe 33">
        <path id="Tracé_153" data-name="Tracé 153" d="M589.863,282.6v88.215l7.9-4.625v-88.42Z" transform="translate(-417.414 -178.729)" fill="#2672ab"/>
        <path id="Tracé_154" data-name="Tracé 154" d="M629.068,304.018v88.215L456.59,293.325v-88.42Z" transform="translate(-456.59 -200.147)" fill="#3f92d1"/>
        <path id="Tracé_155" data-name="Tracé 155" d="M456.59,205.986,629.068,305.1l7.872-4.83L464.41,201.228Z" transform="translate(-456.59 -201.228)" fill="#72b5e8"/>
        <path id="Tracé_156" data-name="Tracé 156" d="M456.59,204.905l172.479,99.113,7.872-4.83-7.893,3.73Z" transform="translate(-456.59 -200.147)" fill="#fff" opacity="0.7"/>
      </g>
      <ellipse id="Ellipse_2" data-name="Ellipse 2" cx="22.03" cy="38.158" rx="22.03" ry="38.158" transform="translate(96.665 105.048) rotate(-30.311)" fill="#2672ab"/>
      <path id="Tracé_157" data-name="Tracé 157" d="M569.613,335.462c-14.949-8.629-27.067-29.531-27.067-46.683,0-6.4,1.688-11.371,4.581-14.645-4.449,2.967-7.169,8.787-7.169,16.909,0,17.153,12.118,38.054,27.067,46.683,9.371,5.411,17.628,4.713,22.485-.787C584.565,340.238,577.483,340.007,569.613,335.462Z" transform="translate(-432.083 -179.797)" fill="#084c94"/>
      <g id="Groupe_35" data-name="Groupe 35" transform="translate(10.015 46.552)">
        <path id="Tracé_158" data-name="Tracé 158" d="M513.291,243.853l-5.82-3.359v65.583l5.82,3.359Zm8.381-3.288-5.82-3.36v73.638l5.82,3.359ZM530.3,255.38l-5.82-3.359v63.752l5.82,3.36ZM490.216,260v35.929l5.819,3.36v-35.93Zm14.447-9.988-5.82-3.359v54.206l5.82,3.36Zm34.1,23.576-5.819-3.36V320.7l5.819,3.36Zm8.3,20.813-5.819-3.36v34.511l5.819,3.359Zm-59.656-40.629-5.82-3.36v40.314l5.82,3.36Zm-23.075,2.38v24.427l5.819,3.36V259.512Zm14.447-9.58-5.819-3.36v42.3l5.819,3.36Z" transform="translate(-464.33 -237.205)" fill="#2672ab"/>
        <path id="Tracé_159" data-name="Tracé 159" d="M513.291,267.116l-5.82-3.359V303.6l5.82,3.359ZM521.672,249l-5.82-3.36v62.719l5.82,3.359Zm8.628,15.538-5.82-3.36v52.111l5.82,3.361Zm-40.084,1.707v27.2l5.819,3.36v-27.2Zm14.447-1.066-5.82-3.359v36.555l5.82,3.36Zm-17.258-10.592-5.82-3.36v37.016l5.82,3.36ZM464.33,271.024V278.1l5.819,3.36v-7.075Zm14.447.014-5.819-3.36v15.35l5.819,3.36Zm59.985,9.463-5.819-3.359v41.08l5.819,3.36Zm8.3,16.538-5.819-3.359v29.391l5.819,3.359Z" transform="translate(-464.33 -234.725)" fill="#a8cff0"/>
        <g id="Groupe_34" data-name="Groupe 34" transform="translate(0 10.919)">
          <path id="Tracé_160" data-name="Tracé 160" d="M516.635,261.738l-5.819-3.36v-.727l5.819,3.36Z" transform="translate(-450.665 -242.114)" fill="#fff"/>
          <path id="Tracé_161" data-name="Tracé 161" d="M509.967,249.73l-5.82-3.36v-.727l5.82,3.36Z" transform="translate(-452.625 -245.643)" fill="#fff"/>
          <path id="Tracé_162" data-name="Tracé 162" d="M529.589,286.854l-5.819-3.36v-.727l5.819,3.36Z" transform="translate(-446.857 -234.731)" fill="#fff"/>
          <path id="Tracé_163" data-name="Tracé 163" d="M503.49,263.729l-5.819-3.36v-.727L503.49,263Z" transform="translate(-454.529 -241.529)" fill="#fff"/>
          <path id="Tracé_164" data-name="Tracé 164" d="M523.175,274.073l-5.819-3.36v-.727l5.819,3.36Z" transform="translate(-448.743 -238.488)" fill="#fff"/>
          <path id="Tracé_165" data-name="Tracé 165" d="M476.817,266.759,471,263.4v-.727l5.819,3.36Z" transform="translate(-462.37 -240.638)" fill="#fff"/>
          <path id="Tracé_166" data-name="Tracé 166" d="M483.485,254.047l-5.819-3.36v-.727l5.819,3.36Z" transform="translate(-460.41 -244.375)" fill="#fff"/>
          <path id="Tracé_167" data-name="Tracé 167" d="M470.149,268.618v.727l-5.819-3.36v-.727Z" transform="translate(-464.33 -239.878)" fill="#fff"/>
          <path id="Tracé_168" data-name="Tracé 168" d="M496.822,262.233l-5.82-3.36v-.727l5.82,3.36Z" transform="translate(-456.489 -241.968)" fill="#fff"/>
          <path id="Tracé_169" data-name="Tracé 169" d="M490.154,265.654l-5.819-3.36v-.727l5.819,3.36Z" transform="translate(-458.449 -240.963)" fill="#fff"/>
        </g>
      </g>
      <g id="Groupe_39" data-name="Groupe 39" transform="translate(101.241 94.338)">
        <g id="Groupe_36" data-name="Groupe 36" transform="translate(0.241)">
          <path id="Tracé_170" data-name="Tracé 170" d="M541.489,295.2c.354-12.964,9.779-18.119,21.34-11.444,5.951,3.437,11.338,9.358,15.217,16.117l4.265-1.073c-4.859-8.814-11.792-16.587-19.482-21.027-14.549-8.4-26.4-1.76-26.579,14.786l3.412,3.1Z" transform="translate(-534.655 -274.135)" fill="#fc0"/>
          <path id="Tracé_171" data-name="Tracé 171" d="M573.907,330.638c-3.155.287-6.809-.593-10.715-2.848-10.952-6.322-19.993-21.047-21.221-33.951l-5.219-2.631c.009.094-1.744.449-1.735.543,1.509,16.062,14.54,34.147,28.174,42.02,4.951,2.858,8.3,4.362,12.276,3.939.167-.017,1.619-.431,1.783-.454Z" transform="translate(-535.017 -269.117)" fill="#fc0"/>
          <path id="Tracé_172" data-name="Tracé 172" d="M571,297.3a40.831,40.831,0,0,1,4.137,16.83c0,7.749-3.157,12.836-8.064,14.5l3.3,6.542c6.074-2.089,9.973-8.421,9.973-18.034a50.758,50.758,0,0,0-5.112-20.906Z" transform="translate(-525.593 -267.64)" fill="#fc0"/>
        </g>
        <path id="Tracé_173" data-name="Tracé 173" d="M566.652,310.857a18.232,18.232,0,0,1-3.749-4.487c-.62-1.038-.6-2.163.005-2.514a4.8,4.8,0,0,0,1.914-2.135c.657.182,1.471-.06,1.471-.96a3.563,3.563,0,0,0-.948-2.426c-.16-3.932-1.5-7.973-6.027-10.585a5.622,5.622,0,0,0-3.663-1.034c-.207.04-2,.512-2.175.6-1.227.609-.1,1.927-.189,4.059-.544-.12-.95.412-.95,1.33a4.348,4.348,0,0,0,1.473,2.66,21.388,21.388,0,0,0,1.912,4.344c.6,1.047.625,2.2.005,2.519a4.942,4.942,0,0,1-3.747.16,2.81,2.81,0,0,0-1.567-.063c-.131.036-1.742.454-1.862.514-.841.419.118,1.033.118,2.46v4.055a2.736,2.736,0,0,0,1.241,2.139l17.378,11.5c.3.173,2.008-.433,2.223-.514a.814.814,0,0,0,.448-.836v-4.055A9.654,9.654,0,0,0,566.652,310.857Z" transform="translate(-530.899 -270.451)" fill="#fc0"/>
        <g id="Groupe_37" data-name="Groupe 37" transform="translate(0.668 0.334)">
          <path id="Tracé_174" data-name="Tracé 174" d="M540.586,295.46c.354-12.965,9.778-18.121,21.34-11.445,5.951,3.437,11.338,9.358,15.217,16.117l4.265-1.073c-4.859-8.814-11.792-16.587-19.482-21.027-14.549-8.4-26.4-1.76-26.579,14.786Z" transform="translate(-535.347 -274.393)" fill="#fff"/>
          <path id="Tracé_175" data-name="Tracé 175" d="M572.61,330.9c-3.155.287-6.809-.593-10.715-2.848C550.942,321.726,541.9,307,540.673,294.1l-5.219-2.631c1.4,16.129,12.724,34.644,26.439,42.563,5.159,2.979,9.978,4.059,14.059,3.485Z" transform="translate(-535.315 -269.375)" fill="#fff"/>
          <path id="Tracé_176" data-name="Tracé 176" d="M570.1,297.555a40.833,40.833,0,0,1,4.137,16.831c0,7.749-3.157,12.836-8.064,14.5l3.3,6.542c6.074-2.089,9.972-8.421,9.972-18.034a50.755,50.755,0,0,0-5.112-20.906Z" transform="translate(-526.285 -267.898)" fill="#fff"/>
        </g>
        <path id="Tracé_177" data-name="Tracé 177" d="M565.643,311.115a18.212,18.212,0,0,1-3.749-4.489c-.62-1.036-.6-2.162.005-2.513a4.8,4.8,0,0,0,1.914-2.135c.657.182,1.471-.06,1.471-.96a3.564,3.564,0,0,0-.948-2.426c-.161-3.932-1.5-7.973-6.027-10.585s-5.867-.123-6.027,3.624c-.543-.12-.95.412-.95,1.33a4.349,4.349,0,0,0,1.472,2.66,21.38,21.38,0,0,0,1.913,4.344c.6,1.047.625,2.2.005,2.519a4.942,4.942,0,0,1-3.747.161c-1.9-.575-3.311.571-3.311,2.91v4.055a2.736,2.736,0,0,0,1.241,2.139l18.809,10.859c.685.4,1.24.079,1.24-.706v-4.055A9.654,9.654,0,0,0,565.643,311.115Z" transform="translate(-531.059 -270.375)" fill="#fff"/>
        <g id="Groupe_38" data-name="Groupe 38" transform="translate(0 0.501)">
          <path id="Tracé_178" data-name="Tracé 178" d="M540.07,295.587c.355-12.964,9.778-18.119,21.34-11.444,5.951,3.437,11.338,9.358,15.217,16.117l4.265-1.073c-4.859-8.814-11.792-16.587-19.482-21.027-14.549-8.4-26.4-1.76-26.579,14.786Z" transform="translate(-534.831 -274.522)" fill="#ffde17"/>
          <path id="Tracé_179" data-name="Tracé 179" d="M572.094,331.025c-3.155.287-6.809-.593-10.715-2.848-10.952-6.322-19.993-21.047-21.221-33.951l-5.219-2.631c1.4,16.128,12.724,34.644,26.439,42.563,5.159,2.979,9.978,4.059,14.059,3.485Z" transform="translate(-534.799 -269.504)" fill="#ffde17"/>
          <path id="Tracé_180" data-name="Tracé 180" d="M569.585,297.684a40.833,40.833,0,0,1,4.137,16.83c0,7.749-3.157,12.836-8.064,14.5l3.3,6.542c6.074-2.088,9.973-8.421,9.973-18.034a50.755,50.755,0,0,0-5.112-20.906Z" transform="translate(-525.769 -268.027)" fill="#ffde17"/>
        </g>
        <path id="Tracé_181" data-name="Tracé 181" d="M565.128,311.244a18.231,18.231,0,0,1-3.749-4.487c-.62-1.038-.6-2.164.005-2.514a4.8,4.8,0,0,0,1.914-2.135c.657.182,1.471-.06,1.471-.96a3.563,3.563,0,0,0-.948-2.426c-.161-3.932-1.5-7.973-6.027-10.585s-5.867-.122-6.027,3.624c-.543-.12-.95.412-.95,1.33a4.349,4.349,0,0,0,1.472,2.66,21.392,21.392,0,0,0,1.912,4.344c.6,1.047.625,2.2.005,2.519a4.936,4.936,0,0,1-3.747.16c-1.9-.574-3.311.571-3.311,2.91v4.055a2.736,2.736,0,0,0,1.241,2.139L567.2,322.738c.684.4,1.24.079,1.24-.708v-4.054A9.654,9.654,0,0,0,565.128,311.244Z" transform="translate(-531.21 -270.337)" fill="#ffde17"/>
      </g>
    </g>
    <g id="Groupe_43" data-name="Groupe 43" transform="translate(366.859 241.066)">
      <g id="Groupe_41" data-name="Groupe 41">
        <path id="Tracé_182" data-name="Tracé 182" d="M457.329,265.193v36.94l6.2-3.4V261.583Z" transform="translate(-320.662 -182.531)" fill="#0ba19f"/>
        <path id="Tracé_183" data-name="Tracé 183" d="M488.406,282.348v36.94l-136.7-78.92V203.223Z" transform="translate(-351.709 -199.686)" fill="#0fbab8"/>
        <path id="Tracé_184" data-name="Tracé 184" d="M351.709,204.027l136.7,79.125,6.166-3.61L357.824,200.489Z" transform="translate(-351.709 -200.489)" fill="#3ecfcd"/>
        <path id="Tracé_185" data-name="Tracé 185" d="M351.709,203.223l136.7,79.125,6.166-3.61-6.038,2.64Z" transform="translate(-351.709 -199.686)" fill="#fff" opacity="0.7"/>
      </g>
      <path id="Tracé_186" data-name="Tracé 186" d="M479.924,305.529l-123-71.788V211.976l123,71.788Z" transform="translate(-350.177 -197.113)" fill="#fff"/>
      <g id="Groupe_42" data-name="Groupe 42" transform="translate(11.899 21.015)">
        <path id="Tracé_187" data-name="Tracé 187" d="M360.905,216.73l2.488,1.436,1.15,11.881.047.027,1.22-10.513,2.816,1.626,1.22,11.921.048.027,1.149-10.552,2.23,1.286-1.665,14.618-3.215-1.856-1.174-10.117-.047-.027L366,235.249l-3.426-1.977Z" transform="translate(-360.905 -216.73)" fill="#084c94"/>
        <path id="Tracé_188" data-name="Tracé 188" d="M372.285,223.345l2.488,1.436,1.149,11.881.047.027,1.221-10.512,2.816,1.625,1.22,11.923.047.026,1.15-10.552,2.229,1.288L382.987,245.1l-3.215-1.856L378.6,233.13l-.047-.027-1.174,8.763-3.426-1.978Z" transform="translate(-357.56 -214.785)" fill="#084c94"/>
        <path id="Tracé_189" data-name="Tracé 189" d="M383.756,229.869l2.488,1.436,1.149,11.881.048.027,1.22-10.512,2.816,1.625,1.22,11.922.048.027,1.149-10.553,2.229,1.287-1.665,14.617-3.216-1.856-1.174-10.117-.047-.027-1.174,8.763-3.426-1.978Z" transform="translate(-354.188 -212.868)" fill="#084c94"/>
      </g>
    </g>
    <g id="Groupe_46" data-name="Groupe 46" transform="translate(406.018 99.576)">
      <g id="Groupe_44" data-name="Groupe 44" transform="translate(0 18.326)">
        <path id="Tracé_190" data-name="Tracé 190" d="M399.672,117.983v25.76l3.885-2.14v-25.96Z" transform="translate(-376.77 -102.266)" fill="#fc0"/>
        <path id="Tracé_191" data-name="Tracé 191" d="M404.9,120.507v25.76l-22.931-13.248V107.059Z" transform="translate(-381.973 -104.79)" fill="#ffd70f"/>
        <path id="Tracé_192" data-name="Tracé 192" d="M381.973,107.574,404.9,121.022l3.857-2.34-22.981-13.377Z" transform="translate(-381.973 -105.305)" fill="#ffde17"/>
        <path id="Tracé_193" data-name="Tracé 193" d="M381.973,107.059,404.9,120.507l3.857-2.34-4.051,1.1Z" transform="translate(-381.973 -104.79)" fill="#fff"/>
      </g>
      <g id="Groupe_45" data-name="Groupe 45" transform="translate(5.98)">
        <path id="Tracé_194" data-name="Tracé 194" d="M415.255,111.672v41.713l6.292-3.465V107.884Z" transform="translate(-378.169 -86.221)" fill="#d62d69"/>
        <path id="Tracé_195" data-name="Tracé 195" d="M386.594,94.817l37.132,21.776,6.245-3.789L392.758,91.142Z" transform="translate(-386.594 -91.142)" fill="#f76195"/>
        <path id="Tracé_196" data-name="Tracé 196" d="M386.594,93.982l37.132,21.776,6.245-3.789-6.076,2.894Z" transform="translate(-386.594 -90.308)" fill="#fff" opacity="0.7"/>
      </g>
      <path id="Tracé_197" data-name="Tracé 197" d="M386.594,93.982v17.3l19.652,11.525v24.565l17.48,10.1V115.759Z" transform="translate(-380.614 -90.308)" fill="#eb4680"/>
    </g>
    <g id="Groupe_52" data-name="Groupe 52" transform="translate(502.849 208.18)">
      <g id="Groupe_47" data-name="Groupe 47" transform="translate(0 0)">
        <path id="Tracé_198" data-name="Tracé 198" d="M476.594,189.248v28.8l4.344-2.393V186.632Z" transform="translate(-450.989 -171.676)" fill="#0ba19f"/>
        <path id="Tracé_199" data-name="Tracé 199" d="M482.442,192.069v28.8l-25.636-14.811V177.035Z" transform="translate(-456.806 -174.498)" fill="#0fbab8"/>
        <path id="Tracé_200" data-name="Tracé 200" d="M456.806,177.611l25.636,15.035,4.312-2.616-25.692-14.956Z" transform="translate(-456.806 -175.074)" fill="#3ecfcd"/>
        <path id="Tracé_201" data-name="Tracé 201" d="M456.806,177.035l25.636,15.035,4.312-2.616-4.529,1.229Z" transform="translate(-456.806 -174.498)" fill="#fff" opacity="0.7"/>
      </g>
      <g id="Groupe_48" data-name="Groupe 48" transform="translate(33.643 19.409)">
        <path id="Tracé_202" data-name="Tracé 202" d="M502.594,204.248v28.8l4.344-2.393V201.632Z" transform="translate(-476.989 -186.677)" fill="#0ba19f"/>
        <path id="Tracé_203" data-name="Tracé 203" d="M508.442,207.069v28.8l-25.637-14.811V192.035Z" transform="translate(-482.806 -189.498)" fill="#0fbab8"/>
        <path id="Tracé_204" data-name="Tracé 204" d="M482.806,192.611l25.637,15.035,4.312-2.616-25.692-14.956Z" transform="translate(-482.806 -190.074)" fill="#3ecfcd"/>
        <path id="Tracé_205" data-name="Tracé 205" d="M482.806,192.035l25.637,15.035,4.312-2.616-4.529,1.229Z" transform="translate(-482.806 -189.498)" fill="#fff" opacity="0.7"/>
      </g>
      <g id="Groupe_49" data-name="Groupe 49" transform="translate(67.07 38.603)">
        <path id="Tracé_206" data-name="Tracé 206" d="M528.427,219.081v28.8l4.344-2.393V216.465Z" transform="translate(-502.823 -201.51)" fill="#0ba19f"/>
        <path id="Tracé_207" data-name="Tracé 207" d="M534.276,221.9v28.8L508.639,235.89V206.868Z" transform="translate(-508.639 -204.331)" fill="#0fbab8"/>
        <path id="Tracé_208" data-name="Tracé 208" d="M508.639,207.444l25.636,15.035,4.312-2.616L512.9,204.907Z" transform="translate(-508.639 -204.907)" fill="#3ecfcd"/>
        <path id="Tracé_209" data-name="Tracé 209" d="M508.639,206.868,534.276,221.9l4.312-2.616-4.529,1.229Z" transform="translate(-508.639 -204.331)" fill="#fff" opacity="0.7"/>
      </g>
      <g id="Groupe_50" data-name="Groupe 50" transform="translate(100.066 57.365)">
        <path id="Tracé_210" data-name="Tracé 210" d="M553.927,233.581v28.8l4.344-2.393V230.965Z" transform="translate(-528.323 -216.01)" fill="#0ba19f"/>
        <path id="Tracé_211" data-name="Tracé 211" d="M559.776,236.4v28.8L534.139,250.39V221.368Z" transform="translate(-534.139 -218.831)" fill="#0fbab8"/>
        <path id="Tracé_212" data-name="Tracé 212" d="M534.139,221.944l25.636,15.035,4.312-2.616L538.4,219.407Z" transform="translate(-534.139 -219.407)" fill="#3ecfcd"/>
        <path id="Tracé_213" data-name="Tracé 213" d="M534.139,221.368,559.776,236.4l4.312-2.616-4.529,1.229Z" transform="translate(-534.139 -218.831)" fill="#fff" opacity="0.7"/>
      </g>
      <path id="Tracé_214" data-name="Tracé 214" d="M525.079,231.39a11.556,11.556,0,0,1-2.372-2.84c-.392-.656-.378-1.369,0-1.59a3.025,3.025,0,0,0,1.21-1.351c.417.115.932-.038.932-.608a2.249,2.249,0,0,0-.6-1.535,7.545,7.545,0,0,0-3.813-6.7c-2.864-1.652-3.712-.076-3.815,2.294-.343-.076-.6.26-.6.842a2.749,2.749,0,0,0,.932,1.683,13.553,13.553,0,0,0,1.21,2.748c.382.662.4,1.391,0,1.594a3.126,3.126,0,0,1-2.372.1c-1.2-.364-2.095.362-2.095,1.841v2.567a1.734,1.734,0,0,0,.784,1.353l11.9,6.871c.433.251.784.05.784-.446v-2.566A6.108,6.108,0,0,0,525.079,231.39Z" transform="translate(-440.081 -163.019)" fill="#fff"/>
      <path id="Tracé_215" data-name="Tracé 215" d="M537.719,245.017l4.155,2.4v-7.451l-4.155-2.4Zm6.578,3.8,4.155,2.4V237.556l-4.155-2.4Zm6.578-16.067v19.866l4.155,2.4V235.147Z" transform="translate(-433.021 -158.12)" fill="#fff"/>
      <path id="Tracé_216" data-name="Tracé 216" d="M501.23,215.573a9.63,9.63,0,0,0-.083-1.176l1.963-.248a17.65,17.65,0,0,0-.89-2.972l-2.236-.677a15.744,15.744,0,0,0-1.392-2.4l.536-2.258a17.964,17.964,0,0,0-2.141-2.257l-1.2,1.557a9.868,9.868,0,0,0-.983-.664,7.807,7.807,0,0,0-.985-.472l-1.2-2.948a5.974,5.974,0,0,0-2.143-.216l.536,2.876a3.072,3.072,0,0,0-1.392.793l-2.236-1.906a5.845,5.845,0,0,0-.89,1.945l1.963,2.514a7.485,7.485,0,0,0-.083,1.082,9.681,9.681,0,0,0,.083,1.177l-1.963.248a17.8,17.8,0,0,0,.89,2.971l2.236.677a15.8,15.8,0,0,0,1.392,2.4l-.536,2.257a17.981,17.981,0,0,0,2.143,2.258l1.2-1.558a9.658,9.658,0,0,0,.985.664,7.453,7.453,0,0,0,.983.472l1.2,2.948a5.934,5.934,0,0,0,2.141.216L498.592,220a3.081,3.081,0,0,0,1.392-.795l2.236,1.906a5.822,5.822,0,0,0,.89-1.943l-1.963-2.515A7.476,7.476,0,0,0,501.23,215.573Zm-6.432-.749a5.69,5.69,0,0,1-2.584-4.456c0-1.637,1.157-2.3,2.584-1.473a5.7,5.7,0,0,1,2.583,4.456C497.38,214.988,496.224,215.648,494.8,214.824Z" transform="translate(-448.082 -167.506)" fill="#fff"/>
      <g id="Groupe_51" data-name="Groupe 51" transform="translate(4.107 13.955)">
        <path id="Tracé_217" data-name="Tracé 217" d="M460.479,185.894l8.252,12.894,8.252-3.366.008.01a3.16,3.16,0,0,0-.979-.954l-14.558-8.406a1.241,1.241,0,0,0-.979-.176Z" transform="translate(-459.835 -185.859)" fill="#fff"/>
        <path id="Tracé_218" data-name="Tracé 218" d="M477.153,195.451l-8.277,4.719-2.343-4.042-5.908,2.411-.026-.039,5.494-3.131-5.493-9.474a1.035,1.035,0,0,0-.62,1.092v9.861a3.561,3.561,0,0,0,1.617,2.79l14.558,8.406c.893.516,1.618.1,1.618-.923v-9.861A3.392,3.392,0,0,0,477.153,195.451Zm-.026,12.616-5.908-9.232.441-.252,5.493,9.474Z" transform="translate(-459.98 -185.849)" fill="#fff"/>
      </g>
    </g>
    <g id="Groupe_54" data-name="Groupe 54" transform="translate(300.174 249.04)">
      <g id="Groupe_53" data-name="Groupe 53">
        <path id="Tracé_219" data-name="Tracé 219" d="M376.818,254.528v36.94l5.832-3.318V251Z" transform="translate(-277.644 -193.614)" fill="#2672ab"/>
        <path id="Tracé_220" data-name="Tracé 220" d="M399.377,266.781v36.94l-99.2-57.257V209.318Z" transform="translate(-300.174 -205.868)" fill="#3f92d1"/>
        <path id="Tracé_221" data-name="Tracé 221" d="M300.174,210.1l99.2,57.463,5.8-3.523-99.255-57.39Z" transform="translate(-300.174 -206.652)" fill="#72b5e8"/>
        <path id="Tracé_222" data-name="Tracé 222" d="M300.174,209.318l99.2,57.463,5.8-3.523-6.039,2.424Z" transform="translate(-300.174 -205.868)" fill="#fff" opacity="0.7"/>
      </g>
      <path id="Tracé_223" data-name="Tracé 223" d="M336.751,233.9l-18.135-10.471c-1.114-.643-2.016-.128-2.016,1.149v12.284a4.436,4.436,0,0,0,2.016,3.476l11.334,6.545,5.668,9.775v-6.5l1.133.655c1.113.643,2.015.128,2.015-1.149V237.379A4.438,4.438,0,0,0,336.751,233.9Zm-12.784,2.3c-.59.336-1.548-.216-2.138-1.234s-.59-2.116,0-2.452,1.548.216,2.138,1.233S324.557,235.866,323.967,236.2Zm4.912,2.835c-.59.336-1.548-.216-2.138-1.233s-.59-2.117,0-2.453,1.548.216,2.138,1.234S329.469,238.7,328.879,239.037Zm4.912,2.836c-.591.336-1.548-.216-2.138-1.234s-.59-2.116,0-2.452,1.546.216,2.138,1.234S334.381,241.537,333.791,241.874Zm-18.7-5.881V226.02l-6.927-4c-1.113-.643-2.015-.128-2.015,1.149v12.284a4.439,4.439,0,0,0,2.015,3.476l1.134.655v6.5l5.668-3.231L326.3,249.4c1.113.643,2.015.128,2.015-1.149v-.578l-9.7-5.6A7.784,7.784,0,0,1,315.089,235.993Z" transform="translate(-298.418 -202.215)" fill="#fff"/>
      <path id="Tracé_224" data-name="Tracé 224" d="M334.548,235.916v3.067l47.392,27.364v-3.067Z" transform="translate(-290.069 -198.049)" fill="#fff"/>
      <path id="Tracé_225" data-name="Tracé 225" d="M366.952,264.492l-32.4-18.726v3.067l32.4,18.726Z" transform="translate(-290.069 -195.154)" fill="#fff"/>
      <path id="Tracé_226" data-name="Tracé 226" d="M334.548,243.908l47.392,27.363V268.2l-47.392-27.363Z" transform="translate(-290.069 -196.602)" fill="#fff"/>
    </g>
    <g id="Groupe_58" data-name="Groupe 58" transform="translate(356.954 226.26)">
      <path id="Tracé_227" data-name="Tracé 227" d="M445.882,321.708l-30.808-17.3c2.66-1.951,4.222-4.273,4.222-6.77,0-6.892-11.762-12.478-26.27-12.478s-26.269,5.586-26.269,12.478,11.761,12.478,26.269,12.478a52.806,52.806,0,0,0,8.618-.7l33.174,18.63c2.142,1.237,5.884,1.082,8.356-.347C445.914,326.31,449.169,323.647,445.882,321.708Z" transform="translate(-337.381 -160.793)" fill="#92b4d1" opacity="0.2"/>
      <g id="Groupe_57" data-name="Groupe 57" transform="translate(0 0)">
        <g id="Groupe_55-2" data-name="Groupe 55" transform="translate(67.007 102.03)">
          <path id="Tracé_228" data-name="Tracé 228" d="M430.837,311.618a7.051,7.051,0,1,1-9.552-2.862A7.051,7.051,0,0,1,430.837,311.618Z" transform="translate(-389.45 -256.136)" fill="#001a46"/>
          <path id="Tracé_229" data-name="Tracé 229" d="M414.05,276.511l-15.266,8.226,22.772,42.008h0c.01.021.018.041.03.062,1.322,2.455,5.813,2.6,10.028.333s6.56-6.1,5.237-8.558c-.01-.021-.023-.039-.035-.06h0Z" transform="translate(-394.975 -265.366)" fill="#084c94"/>
          <path id="Tracé_230" data-name="Tracé 230" d="M414.147,276.976c1.322,2.455-1.022,6.286-5.238,8.557s-8.706,2.123-10.028-.333,1.022-6.286,5.238-8.557S412.823,274.522,414.147,276.976Z" transform="translate(-395.055 -265.801)" fill="#2672ab"/>
          <path id="Tracé_231" data-name="Tracé 231" d="M404.92,267.9l-9.08,4.892,6.456,11.982h0l.018.038c.787,1.46,3.457,1.549,5.965.2s3.9-3.631,3.116-5.09l-.022-.036h0Z" transform="translate(-395.84 -267.898)" fill="#001a46"/>
        </g>
        <g id="Groupe_56" data-name="Groupe 56" transform="translate(10.08)">
          <path id="Tracé_232" data-name="Tracé 232" d="M392.218,194.764c-11.3-6.527-21.556-7.275-29.057-3.213-.211.114-10.977,6.12-11.316,6.641,7.634-5.758,18.935-5.67,31.547,1.611,22.99,13.273,41.625,45.418,41.625,71.8,0,13.461-4.854,22.816-12.66,26.991a9.314,9.314,0,0,0,2.031-.893c.223-.124,7.563-4.572,7.781-4.7,7.228-4.418,11.675-13.545,11.675-26.432C433.844,240.182,415.207,208.036,392.218,194.764Z" transform="translate(-351.845 -189.047)" fill="#72b5e8"/>
        </g>
        <path id="Tracé_233" data-name="Tracé 233" d="M385.681,198.658c-22.99-13.273-41.626-2.647-41.626,23.732s18.637,58.526,41.626,71.8,41.625,2.647,41.625-23.734S408.671,211.931,385.681,198.658Zm-.625,89.231c-19.509-11.263-35.324-38.542-35.324-60.927s15.815-31.4,35.324-20.139,35.324,38.542,35.324,60.927S404.565,299.153,385.056,287.889Z" transform="translate(-344.055 -187.902)" fill="#d1ebff"/>
        <path id="Tracé_234" data-name="Tracé 234" d="M391.079,281.6c-19.509-11.264-35.324-38.542-35.324-60.928,0-9.131,2.633-16.036,7.073-20.249-8.723,2.343-14.385,10.944-14.385,24.335,0,22.385,15.815,49.665,35.324,60.927,11.551,6.669,21.8,6.227,28.25.111C406.157,287.375,398.918,286.128,391.079,281.6Z" transform="translate(-342.765 -185.702)" fill="#72b5e8"/>
        <path id="Tracé_235" data-name="Tracé 235" d="M384.238,197.884c-11.019-6.362-21.032-7.22-28.479-3.5,6.941-1.942,17.151-.891,26.482,4.5,22.99,13.273,41.625,45.418,41.625,71.8,0,13.735-6.656,23.585-14.745,27.63,10.163-2.843,16.742-12.954,16.742-28.627C425.864,243.3,407.227,211.157,384.238,197.884Z" transform="translate(-340.615 -188.127)" fill="#fff" style="mix-blend-mode: screen;isolation: isolate"/>
      </g>
    </g>
  </g>
</svg>
